<svg id="Laag_1" data-name="Laag 1" xmlns="http://www.w3.org/2000/svg" viewBox="0 0 552.35 97.95"><defs><style>.cls-1,.cls-2,.cls-4{fill:#e30613;}.cls-2,.cls-4{font-size:24px;}.cls-2{font-family:Arial-BoldMT, Arial;font-weight:700;}.cls-3{letter-spacing:-0.07em;}.cls-4{font-family:ArialMT, Arial;}</style></defs><path class="cls-1" d="M87.11,22.88c-4.9,2.2-14.9,12.2-22.2,22.4-3.6,5-6.8,9.1-7.2,9.1s-.4-4-.1-8.9c.6-8.6.5-9-2-11.5-1.4-1.4-3.4-2.6-4.4-2.6-4.9,0-12.2,7.8-15.9,16.9a16.15,16.15,0,0,0,1.6,15.1c3.8,5.4,4.6,4.2,6.1-10.4,1.3-12.4,2.4-16.2,5.3-18.2,5.6-3.6,8.2,1.8,6.8,14.5-.9,8.8-1.1,9.3-5.7,14.8-7.1,8.6-9.8,15.2-9.9,24-.1,4-.4,7.3-.7,7.3s-2.4-1.9-4.6-4.3c-4.5-4.9-8.2-13.6-9-21.3C24,59,29.91,45,40,34.38c3.2-3.4,5.9-6.8,5.9-7.6,0-2.8-4.1-3.7-14.9-3.1l-10.5.5-3.3,3.6c-4,4.3-4.1,5.3-.8,6.8,2.1,1,3.2.8,6.6-1.1,5.1-2.9,5.9-2.1,2.4,2.1-3.9,4.5-7.2,12.4-8.5,20.2a42.9,42.9,0,0,0,3.6,25.4c3.8,7.7,13,16.5,21.5,20.5l6.9,3.2v4.3a19.15,19.15,0,0,0,1.5,7.2c2.9,5.7,6.5,2.7,6.5-5.3,0-3.5-.6-5-2.5-6.8-3.2-3.1-3.1-4.8.5-15.8,4.8-14.9,10.8-24.9,20.2-33.8,7.3-6.8,22.8-14.5,22.8-11.3,0,1.2-10.8,12.1-17.9,18.1-3.7,3.2-4.2,4.1-3.9,7l.3,3.4,13.5.5c14.8.5,18.4,1.7,19.6,6.5.9,3.5-.3,8.9-2.4,10.8-.9.9-4.2,2.7-7.2,4.1-6.4,3-17.2,3.6-20.5,1.2-1.8-1.3-1.4-1.6,5-5,3.9-2,5.9-3.4,4.5-3a64.15,64.15,0,0,0-7.4,3.1c-5.9,3-6.8,2.4-7.4-5-.4-4.7-.8-5.6-3.3-7.1-1.6-.9-3.4-1.4-4-1-1.7,1-.1,9.2,2.7,14.4l2.5,4.5L69.41,98c-5.8,4.6-8.3,11.7-5,14.4,2.6,2.1,8.7,2.9,14,1.8,10.3-2.1,19.7-9,39.4-28.8,16.6-16.8,18.8-43.1,4.2-50.7a20.63,20.63,0,0,0-10.1-2.3h-5.8l-.6-3.6c-1.1-5.4-3.7-7.4-9.8-7.4A28.88,28.88,0,0,0,87.11,22.88Zm11.2,2.7a11.26,11.26,0,0,1,3.1,4.8c.5,2.3-.2,2.8-8.7,6.9-8,3.7-10.6,5.6-18.5,13.6-8.3,8.4-9.7,10.4-14.8,21A137.61,137.61,0,0,0,51.61,92c-1.2,4.6-2.6,8.2-3.2,8-4.3-1.5,7.6-32.5,21.4-55.9C80.11,26.68,91.31,19.38,98.31,25.58Zm17.4,17.2c6.6,3.4,10,11.4,8.8,20.4-.7,5.4-6.1,17.2-7.9,17.2-.8,0-1.2-2-1.3-5.5,0-4.7-.4-6-3-8.6-4-4.3-7.8-5.7-17.3-6.5-4.5-.4-8.1-.9-8.1-1.1s3.5-4.2,7.8-8.9l7.7-8.3,5.3-.1C110.61,41.38,114.21,42,115.71,42.78Zm-38.3,55.1c5.2,1.9,10.4,1.9,17.7-.1,3.3-.8,6.5-1.3,7.1-1.1,1.9.6-9.4,10.6-15.1,13.4-6.9,3.3-14.3,4.1-17.7,1.9-3.7-2.4-3.4-7.5.6-12.1a47.13,47.13,0,0,1,3.3-3.5Z" transform="translate(-14.06 -21.38)"/><text class="cls-2" transform="translate(133.85 76.34)"><tspan class="cls-3">V</tspan><tspan x="14.23" y="0">ANDER BEKEN</tspan></text><text class="cls-4" transform="translate(132.74 41.66)">SCHILDER- EN DECOR<tspan class="cls-3" x="262.7" y="0">A</tspan><tspan x="276.93" y="0">TIEWERKEN</tspan></text></svg>