<svg id="Laag_1" data-name="Laag 1" xmlns="http://www.w3.org/2000/svg" viewBox="0 0 142.68 78.21"><defs><style>.cls-1,.cls-3,.cls-4{fill:#e30613;}.cls-2,.cls-3,.cls-4{isolation:isolate;}.cls-3,.cls-4{font-size:18px;font-family:Arial-BoldMT, Arial;font-weight:700;}.cls-3{letter-spacing:-0.07em;}</style></defs><path class="cls-1" d="M84.25,7c-2.63,1.18-8,6.54-11.91,12a35,35,0,0,1-3.86,4.89c-.21,0-.21-2.15,0-4.78.32-4.61.26-4.83-1.08-6.17A4.63,4.63,0,0,0,65,11.58c-2.62,0-6.54,4.18-8.52,9.06a8.68,8.68,0,0,0,.85,8.1c2,2.9,2.47,2.25,3.28-5.58.69-6.65,1.28-8.68,2.84-9.76,3-1.93,4.4,1,3.65,7.78-.49,4.72-.59,5-3.06,7.94-3.81,4.61-5.26,8.15-5.31,12.87a14.15,14.15,0,0,1-.38,3.92,13.69,13.69,0,0,1-2.46-2.31,21.66,21.66,0,0,1-4.83-11.43c-.64-5.79,2.52-13.3,7.94-19,1.71-1.83,3.16-3.65,3.16-4.08,0-1.5-2.2-2-8-1.66l-5.63.27L46.76,9.65c-2.15,2.3-2.2,2.84-.43,3.65,1.13.53,1.72.42,3.54-.59,2.73-1.56,3.16-1.13,1.29,1.12-2.1,2.42-3.87,6.65-4.56,10.84a23,23,0,0,0,1.93,13.62c2,4.13,7,8.85,11.53,11L63.76,51v2.31a10.45,10.45,0,0,0,.8,3.86c1.56,3.06,3.49,1.45,3.49-2.84,0-1.88-.32-2.69-1.34-3.65C65,49,65.05,48.1,67,42.2c2.57-8,5.79-13.35,10.83-18.12C81.73,20.43,90,16.3,90,18c0,.64-5.79,6.49-9.6,9.7-2,1.72-2.25,2.2-2.09,3.76l.16,1.82,7.24.27c7.94.27,9.87.91,10.51,3.49.49,1.87-.16,4.77-1.28,5.79a20.06,20.06,0,0,1-3.87,2.2c-3.43,1.61-9.22,1.93-11,.64-1-.7-.75-.86,2.68-2.68,2.09-1.07,3.16-1.82,2.41-1.61a35.23,35.23,0,0,0-4,1.66c-3.17,1.61-3.65,1.29-4-2.68-.22-2.52-.43-3-1.77-3.81-.86-.48-1.83-.75-2.15-.53-.91.53,0,4.93,1.45,7.72l1.34,2.41L74.76,47.3c-3.12,2.47-4.46,6.28-2.69,7.72,1.4,1.13,4.67,1.56,7.51,1,5.53-1.13,10.57-4.83,21.13-15.45,8.91-9,10.09-23.11,2.26-27.19a11,11,0,0,0-5.42-1.23H94.44l-.32-1.94c-.59-2.89-2-4-5.26-4A15.4,15.4,0,0,0,84.25,7Zm6,1.45A6.18,6.18,0,0,1,91.92,11c.27,1.24-.11,1.5-4.67,3.7-4.29,2-5.68,3-9.92,7.3-4.45,4.5-5.2,5.58-7.94,11.26a74.18,74.18,0,0,0-4.18,10.78c-.65,2.47-1.4,4.4-1.72,4.29-2.3-.8,4.08-17.43,11.48-30C80.49,9.05,86.5,5.14,90.26,8.47Zm9.33,9.22c3.54,1.83,5.36,6.12,4.72,10.94-.38,2.9-3.27,9.23-4.24,9.23-.43,0-.64-1.07-.7-3,0-2.52-.21-3.22-1.61-4.61-2.14-2.31-4.18-3.06-9.27-3.49a23.64,23.64,0,0,1-4.35-.59c0-.11,1.88-2.25,4.18-4.77L92.45,17l2.85-.06a11.43,11.43,0,0,1,4.29.75ZM79.05,47.25c2.79,1,5.57,1,9.49-.06a15.06,15.06,0,0,1,3.81-.59c1,.32-5,5.69-8.1,7.19-3.7,1.77-7.67,2.2-9.49,1-2-1.29-1.83-4,.32-6.49a24.15,24.15,0,0,1,1.77-1.88Z" transform="translate(-5.11 -6.22)"/><g class="cls-2"><text class="cls-3" transform="translate(0 71.44)">V</text><text class="cls-4" transform="translate(10.67 71.44)">ANDER BEKEN</text></g></svg>