<svg xmlns="http://www.w3.org/2000/svg" viewBox="0 0 1457.03 685.95"><defs><style>.cls-1{fill:#51a8f0;}.cls-2{fill:#231f20;opacity:0.23;}.cls-3{fill:#192636;}.cls-4{fill:#de8887;}.cls-5{fill:#fff;}.cls-6{fill:#ffacab;}.cls-7{fill:#29415e;}.cls-8{fill:#d5e5fd;}.cls-9{fill:#db7170;}.cls-10{fill:#ffc4c4;}.cls-11{fill:#3670a1;}</style></defs><g id="Layer_2" data-name="Layer 2"><rect class="cls-1" width="1457.03" height="685.95"/></g><g id="Layer_1" data-name="Layer 1"><path class="cls-2" d="M174,594.89H364.7a7.55,7.55,0,0,1,7.55,7.55h0A7.55,7.55,0,0,1,364.7,610H174a7.55,7.55,0,0,1-7.55-7.55h0A7.55,7.55,0,0,1,174,594.89Z"/><path class="cls-3" d="M266.83,235.72h10.73a0,0,0,0,1,0,0v64.1a0,0,0,0,1,0,0h-2.61a23.35,23.35,0,0,1-23.35-23.35V251a15.23,15.23,0,0,1,15.23-15.23Z" transform="translate(53.61 -43.99) rotate(10.57)"/><path class="cls-4" d="M350.45,592.39l-13.51-13.34-6.57-73.46s-9.24-9.07-20.65-22.17v0c-16-18.34-36.21-44.55-41.27-64.77l47.41-1.48,25.33,47.12,14.54,27.11a30,30,0,0,1,3.13,17.81Z"/><path class="cls-3" d="M341.18,464.27l-31.46,19.15v0c-16-18.34-36.21-44.55-41.27-64.77l47.41-1.48Z"/><path class="cls-5" d="M358.37,582.83,336.9,579l-1.84,16.3,37.22,6.95A17.08,17.08,0,0,0,358.37,582.83Z"/><path class="cls-6" d="M315.85,417.15l-28.09,64.47L277.2,505.84a24.36,24.36,0,0,1-25.56,12.4l-79.71-17.73.49-18.7,73.48,5.38s1.66-7,4.22-17.46c4-16.57,10.37-41.85,16-61.85Z"/><path class="cls-7" d="M315.85,417.15l-28.09,64.47-37.64-11.89c4-16.57,10.37-41.85,16-61.85Z"/><path class="cls-5" d="M171.85,503.6l.57-21.79-16.63.6-1.47,37.84A17.11,17.11,0,0,0,171.85,503.6Z"/><path class="cls-6" d="M238.06,391.14h16.35a0,0,0,0,1,0,0v11.61a6.12,6.12,0,0,1-6.12,6.12H238.06a0,0,0,0,1,0,0V391.14A0,0,0,0,1,238.06,391.14Z" transform="translate(47.09 -25.41) rotate(6.53)"/><path class="cls-8" d="M255.37,392.13l8.42-42.7,23.58-13.6s23.86-32.18-12.67-14.91C251.85,331.73,246.8,339,246.8,339l-7.68,51.3Z"/><circle class="cls-5" cx="285.51" cy="245.88" r="12" transform="matrix(0.07, -1, 1, 0.07, 21.08, 514.29)"/><ellipse class="cls-3" cx="309.19" cy="253.43" rx="30.01" ry="28.25" transform="translate(3.35 510.89) rotate(-79.43)"/><path class="cls-6" d="M291.41,257.94l-.66-.12a3.2,3.2,0,0,0-3.73,2.56l-1.34,7.19a4.06,4.06,0,0,0,3.25,4.74l2.95.55L294,261.68A3.22,3.22,0,0,0,291.41,257.94Z"/><path class="cls-6" d="M320.55,266.52l-27.73-5.17L286.54,295s6.75,8.84,17,10.74,9.17,2.76,9.17,2.76Z"/><path class="cls-9" d="M313.92,302.06l4.14-22.19-25.12-4.69S293.66,296,313.92,302.06Z"/><path class="cls-6" d="M318.71,238.9h0A20.14,20.14,0,0,0,295.21,255l-3.32,17.8A20.14,20.14,0,0,0,308,296.3h0a20.15,20.15,0,0,0,23.5-16.1l3.32-17.8A20.15,20.15,0,0,0,318.71,238.9Z"/><path class="cls-9" d="M327.83,273.18l-2.15-.06-.08,1.62a2.76,2.76,0,0,1-.88,1.88,1.67,1.67,0,0,1-1.44.44l-.44,2.31a3.76,3.76,0,0,0,3.19-.94,5.19,5.19,0,0,0,1.71-3.63Z"/><path class="cls-5" d="M316.66,289.92c7.72,1.44,11.07-7.08,11.07-7.08l-18.84-3.52S308.94,288.48,316.66,289.92Z"/><rect class="cls-3" x="284.54" y="252.58" width="24.46" height="2.67" transform="translate(-7.28 499.07) rotate(-79.43)"/><path class="cls-3" d="M297.64,251.7l3.38.63a4,4,0,0,0,4.72-3.24l2.89-15.47-7.36-1.37Z"/><path class="cls-5" d="M291.74,293.77l-9.35.94s-10,35-4,56c5.35,18.69-12.26,57.15-12.26,57.15l49.69,9.27,8.78-69.4C327.94,326.76,312.27,298.06,291.74,293.77Z"/><polygon class="cls-8" points="289.46 350.22 288.97 368.57 320.83 390.43 289.46 350.22"/><polygon class="cls-8" points="317.43 408.66 272.43 391.95 275.19 383.35 317.43 408.66"/><path class="cls-6" d="M330.61,403.84H347a0,0,0,0,1,0,0v10.91a6.08,6.08,0,0,1-6.08,6.08H330.61a0,0,0,0,1,0,0v-17A0,0,0,0,1,330.61,403.84Z" transform="translate(-191.6 471.39) rotate(-56.95)"/><path class="cls-5" d="M336.27,401,289,368.57l5.19-74.11s-22.18-6.19-23.6,17c-2.46,40.33-3.7,71.85-3.7,71.85l60.34,31.21Z"/><path class="cls-5" d="M334.58,347c0,8.69-5.33,15.74-11.91,15.74s-11.91-7-11.91-15.74-5.06-28,1.52-28S334.58,338.27,334.58,347Z"/><polygon class="cls-8" points="291.96 325.83 299.8 326.84 290.46 349.14 291.96 325.83"/><path class="cls-2" d="M435.67,561.15H626.33a7.55,7.55,0,0,1,7.55,7.55h0a7.55,7.55,0,0,1-7.55,7.55H435.67a7.55,7.55,0,0,1-7.55-7.55h0A7.55,7.55,0,0,1,435.67,561.15Z"/><path class="cls-4" d="M609.81,557.29l-14.9-14.71-7.24-81s-10.19-10-22.77-24.45v0C547.25,416.89,525,388,519.38,365.69l52.27-1.63,27.94,52,16,29.89a33.14,33.14,0,0,1,3.45,19.65Z"/><path class="cls-3" d="M599.59,416,564.9,437.13v0C547.25,416.89,525,388,519.38,365.69l52.27-1.63Z"/><path class="cls-5" d="M618.54,546.75l-23.67-4.17-2,18,41,7.66A18.84,18.84,0,0,0,618.54,546.75Z"/><path class="cls-6" d="M571.65,364.06l-31,71.09L529,461.86a26.89,26.89,0,0,1-28.19,13.68L413,456l.54-20.61,81,5.93s1.84-7.72,4.66-19.25c4.45-18.27,11.43-46.14,17.69-68.21Z"/><path class="cls-7" d="M571.65,364.06l-31,71.09L499.18,422c4.45-18.27,11.43-46.14,17.69-68.21Z"/><path class="cls-5" d="M412.87,459.39l.62-24-18.33.66-1.63,41.72A18.85,18.85,0,0,0,412.87,459.39Z"/><path class="cls-6" d="M486,344.05h18a0,0,0,0,1,0,0v12.81a6.75,6.75,0,0,1-6.75,6.75H486a0,0,0,0,1,0,0V344.05A0,0,0,0,1,486,344.05Z" transform="translate(43.45 -54) rotate(6.53)"/><path class="cls-8" d="M505.07,345.14l9.28-47.09,26-15s26.31-35.49-14-16.45c-25.21,11.92-30.78,19.91-30.78,19.91l-8.46,56.56Z"/><path class="cls-6" d="M576.84,198l-30.57-5.7-6.93,37.11s7.44,9.74,18.71,11.84,10.11,3,10.11,3Z"/><path class="cls-9" d="M569.52,237.15l4.57-24.47-27.69-5.17S547.18,230.45,569.52,237.15Z"/><path class="cls-5" d="M545.07,228l-10.31,1s-11,38.61-4.38,61.76c5.91,20.61-13.52,63-13.52,63l54.79,10.23,9.69-76.53C585,264.39,567.71,232.74,545.07,228Z"/><polygon class="cls-8" points="542.56 290.26 542.02 310.49 577.15 334.59 542.56 290.26"/><polygon class="cls-8" points="573.4 354.7 523.77 336.28 526.82 326.79 573.4 354.7"/><path class="cls-6" d="M587.93,349.38h18a0,0,0,0,1,0,0v12a6.7,6.7,0,0,1-6.7,6.7H587.93a0,0,0,0,1,0,0V349.38A0,0,0,0,1,587.93,349.38Z" transform="translate(-29.34 663.4) rotate(-56.95)"/><path class="cls-5" d="M594.17,346.26,542,310.49l5.72-81.72s-24.46-6.82-26,18.77c-2.71,44.48-4.08,79.24-4.08,79.24l66.54,34.41Z"/><polygon class="cls-8" points="545.32 263.36 553.96 264.48 543.66 289.06 545.32 263.36"/><path class="cls-9" d="M587.42,190h0v20.59h0a5.07,5.07,0,0,0,5.07-5.06V195.11A5.07,5.07,0,0,0,587.42,190Z"/><path class="cls-6" d="M542.16,182.34v10h1.07V219a44,44,0,0,0,30.46,8.73,17.57,17.57,0,0,0,15.76-17.49V182.34a23.11,23.11,0,0,0-23.11-23.12h-1.06A23.13,23.13,0,0,0,542.16,182.34Z"/><path class="cls-3" d="M587.42,172.87a23.1,23.1,0,0,0-21.08-13.65h-1.06a23.12,23.12,0,0,0-23.12,23.12v10h1.07v5.16H551V185.76h2.77a6.29,6.29,0,0,0,6.29-6.29v-.07a6.51,6.51,0,0,1,6.51-6.52Z"/><path class="cls-6" d="M541.52,190h0a5.12,5.12,0,0,1,5.12,5.12v15.47a0,0,0,0,1,0,0h-5.12a5.06,5.06,0,0,1-5.06-5.06V195.11A5.06,5.06,0,0,1,541.52,190Z"/><path class="cls-9" d="M576.61,205.53v-2.15a2.42,2.42,0,0,0,2.41-2.49l-.11-3.69,2.15-.07.11,3.69a4.56,4.56,0,0,1-4.56,4.71Z"/><path class="cls-5" d="M583.81,212.14h-18s3.26,6.74,9.45,6.74S583.81,212.14,583.81,212.14Z"/><path class="cls-3" d="M556.66,153.49h21.85a0,0,0,0,1,0,0v3.19a13.84,13.84,0,0,1-13.84,13.84H542.82a0,0,0,0,1,0,0v-3.19A13.84,13.84,0,0,1,556.66,153.49Z" transform="translate(13.92 366.12) rotate(-36.59)"/><path class="cls-3" d="M562.05,155.07H590a0,0,0,0,1,0,0v.76a13.46,13.46,0,0,1-13.46,13.46H548.59a0,0,0,0,1,0,0v-.76A13.46,13.46,0,0,1,562.05,155.07Z" transform="translate(-22.46 177.17) rotate(-17.35)"/><path class="cls-3" d="M564.91,161.42h31.25a0,0,0,0,1,0,0v3.9a7.56,7.56,0,0,1-7.56,7.56H564.91a0,0,0,0,1,0,0V161.42A0,0,0,0,1,564.91,161.42Z"/><path class="cls-3" d="M541,174.55h12a0,0,0,0,1,0,0v8.54a0,0,0,0,1,0,0H548.8a7.76,7.76,0,0,1-7.76-7.76v-.78A0,0,0,0,1,541,174.55Z"/><path class="cls-3" d="M539.86,168.16h12a0,0,0,0,1,0,0v8.54a0,0,0,0,1,0,0h-4.21a7.76,7.76,0,0,1-7.76-7.76v-.78A0,0,0,0,1,539.86,168.16Z" transform="translate(105.93 -193.84) rotate(22.25)"/><rect class="cls-5" x="539.38" y="172.43" width="52.84" height="8.54" rx="3.33"/></g><g id="Layer_3" data-name="Layer 3"><path class="cls-5" d="M865.55,203.82l3.15,15.8,3.84-15.1,22.09-75h7.76l21.81,75L928,219.76l3.36-15.94,18.38-74.3h8.81L932.45,231.29H924.2l-23.07-79.62-2.58-10.06L896,151.67,872.4,231.29h-8.24l-26-101.77H847Z"/><path class="cls-5" d="M1050.3,185.92a62.35,62.35,0,0,1-2.8,19.33,43.11,43.11,0,0,1-7.93,14.72,35.21,35.21,0,0,1-12.48,9.4,41.7,41.7,0,0,1-32.61,0,36.15,36.15,0,0,1-12.54-9.4,42.92,42.92,0,0,1-8.11-14.72A61.14,61.14,0,0,1,971,185.92V175a61.46,61.46,0,0,1,2.87-19.36,44,44,0,0,1,8-14.79,35.26,35.26,0,0,1,12.47-9.43,41.7,41.7,0,0,1,32.61,0,35.45,35.45,0,0,1,12.55,9.43,42.73,42.73,0,0,1,8,14.79,62.68,62.68,0,0,1,2.8,19.36Zm-8.6-11a58.69,58.69,0,0,0-2.1-16.29,35.58,35.58,0,0,0-6.08-12.33,27.08,27.08,0,0,0-9.78-7.83,30.23,30.23,0,0,0-13.14-2.76,29.66,29.66,0,0,0-13,2.76,27.46,27.46,0,0,0-9.79,7.83,35.85,35.85,0,0,0-6.15,12.33,57.91,57.91,0,0,0-2.13,16.29v11a57,57,0,0,0,2.17,16.36A36.24,36.24,0,0,0,988,214.65a27.19,27.19,0,0,0,9.82,7.83,29.94,29.94,0,0,0,13,2.73,30.4,30.4,0,0,0,13.17-2.73,26.37,26.37,0,0,0,9.72-7.83,36.13,36.13,0,0,0,6-12.37,60.16,60.16,0,0,0,2.06-16.36Z"/><path class="cls-5" d="M1110,188.93h-29.56v42.36h-8.67V129.52h33.06a49.14,49.14,0,0,1,14.36,1.95,30.57,30.57,0,0,1,10.91,5.77,25.23,25.23,0,0,1,6.92,9.4,32.2,32.2,0,0,1,2.41,12.86,28.58,28.58,0,0,1-1.54,9.47,27.42,27.42,0,0,1-4.33,8,28.85,28.85,0,0,1-6.68,6.15,31.64,31.64,0,0,1-8.56,4l25.44,43.27v.91h-9.15Zm-29.56-7.34h26.35a27.66,27.66,0,0,0,10.45-1.82,22,22,0,0,0,7.51-4.85,19.7,19.7,0,0,0,4.51-7.06,23.73,23.73,0,0,0,1.5-8.36,25.35,25.35,0,0,0-1.67-9.43,18.57,18.57,0,0,0-5-7.13,22.8,22.8,0,0,0-8.15-4.51,35.77,35.77,0,0,0-11.11-1.57h-24.39Z"/><path class="cls-5" d="M1171.5,224h50.26v7.27h-58.92V129.52h8.66Z"/><path class="cls-5" d="M1238.26,231.29V129.52h28.45a45.72,45.72,0,0,1,17.51,3.28,39.32,39.32,0,0,1,13.77,9.37,42.9,42.9,0,0,1,9,14.61,53.58,53.58,0,0,1,3.21,19v9.3a53.62,53.62,0,0,1-3.21,19,42.26,42.26,0,0,1-9,14.57A39.64,39.64,0,0,1,1284,228a47.21,47.21,0,0,1-17.89,3.29Zm8.6-94.43V224h19.29a36.88,36.88,0,0,0,14.75-2.83,31.66,31.66,0,0,0,11.18-8,35.64,35.64,0,0,0,7.1-12.3,48.27,48.27,0,0,0,2.48-15.83v-9.51a47.86,47.86,0,0,0-2.52-16,35.3,35.3,0,0,0-7.09-12.2,31.53,31.53,0,0,0-11-7.79,36,36,0,0,0-14.33-2.76Z"/><path class="cls-10" d="M918.07,360.76h-16.2v-41.6H860v41.6H843.75V267.15H860v39h41.86v-39h16.2Z"/><path class="cls-10" d="M992,319H953.56v28.8H998.5v13H937.29V267.15h60.76v13.11H953.56v25.85H992Z"/><path class="cls-10" d="M1064.14,339h-36.26l-7.58,21.8h-16.91l35.36-93.61h14.59l35.43,93.61h-17Zm-31.69-13.11h27.13L1046,287Z"/><path class="cls-10" d="M1115.64,347.77h42.5v13h-58.76V267.15h16.26Z"/><path class="cls-10" d="M1225.07,280.26h-29.19v80.5h-16.14v-80.5h-28.93V267.15h74.26Z"/><path class="cls-10" d="M1311.67,360.76h-16.2v-41.6h-41.85v41.6h-16.27V267.15h16.27v39h41.85v-39h16.2Z"/><path class="cls-11" d="M842.26,579.55v-185h59.59A90,90,0,0,1,936.41,401a79.15,79.15,0,0,1,27.13,18.23,83.29,83.29,0,0,1,17.72,28.08,98.12,98.12,0,0,1,6.36,35.9V491a97.9,97.9,0,0,1-6.36,36,82.66,82.66,0,0,1-17.72,28,79.91,79.91,0,0,1-27,18.17,88.37,88.37,0,0,1-34.18,6.48ZM886.86,429V545.24h15.5q19.18,0,29.48-13.66T942.13,491v-8q0-26.81-10.29-40.4t-30-13.6Z"/><path class="cls-11" d="M1112.9,545h-61.12l-10.67,34.56H993.46l67.85-185h41.93l68.36,185h-47.9Zm-50.44-34.44h39.77l-20-64.16Z"/><path class="cls-11" d="M1233.73,474.85l34.06-80.3h48.15l-59.59,118.54v66.46h-45.23V513.09l-59.47-118.54h47.9Z"/></g></svg>