<svg xmlns="http://www.w3.org/2000/svg" viewBox="0 0 1731 604"><defs><style>.cls-1{isolation:isolate;}.cls-2{fill:#9c84f3;}.cls-3{fill:#8269e2;}.cls-4{fill:#7b64d5;}.cls-5{fill:#7963d1;}.cls-6{fill:#7e67db;}.cls-7{fill:#715cc3;}.cls-8{fill:#8771e1;}.cls-9{fill:#7a64d3;}.cls-10{fill:#7660cd;}.cls-11{fill:#6d59bd;}.cls-12{fill:#6854b5;}.cls-13{fill:#6955b7;}.cls-14{fill:#6d59bc;}.cls-15{fill:#6e5ac0;}.cls-16{fill:#8068de;}.cls-17{fill:#7660cc;}.cls-18{fill:#7e66da;}.cls-19{fill:#6e5abe;opacity:0.19;}.cls-20{fill:#7660cb;}.cls-21,.cls-24{fill:#826ae2;}.cls-22{opacity:0.6;}.cls-23,.cls-26{fill:#735ec8;}.cls-23{mix-blend-mode:multiply;opacity:0.36;}.cls-24{mix-blend-mode:screen;}.cls-24,.cls-27{opacity:0.3;}.cls-25{fill:#b89af3;}.cls-27,.cls-46{fill:#6c58bb;}.cls-28{fill:#7a63d2;}.cls-29{fill:#755fcb;}.cls-30{fill:#7b64d4;}.cls-31{fill:#7560cc;}.cls-32{fill:#755fca;}.cls-33{fill:#7862ce;}.cls-34{fill:#745fc8;}.cls-35,.cls-41{fill:#735dc7;}.cls-36{fill:#7c65d6;}.cls-37{fill:#7963d0;}.cls-38{fill:#7a63d3;}.cls-39{fill:#745fc9;}.cls-40{fill:#7d66d9;}.cls-41{opacity:0.08;}.cls-42{fill:#7c66d7;}.cls-43{fill:#8069de;}.cls-44{fill:#836be3;}.cls-45{fill:#7862d0;}.cls-47{fill:#6653b1;}.cls-48{fill:#6e59bf;}.cls-49{fill:#715cc4;}.cls-50{fill:#6b57b9;}.cls-51{fill:#7e66db;}.cls-52{fill:#7861cf;}.cls-53{fill:#fff;}.cls-54{fill:#231f20;opacity:0.23;}.cls-55{fill:#192636;}.cls-56{fill:#de8887;}.cls-57{fill:#ffacab;}.cls-58{fill:#29415e;}.cls-59{fill:#d5e5fd;}.cls-60{fill:#8fceff;}.cls-61{fill:#db7170;}.cls-62{fill:#363a45;}</style></defs><g class="cls-1"><g id="Layer_3" data-name="Layer 3"><rect class="cls-2" width="1731" height="604"/></g><g id="Layer_1" data-name="Layer 1"><path class="cls-3" d="M360.36,487.61h40.92v-338h-4.63C359.56,225.77,360.36,487.61,360.36,487.61Z"/><path class="cls-3" d="M409.46,149.65v338h40.92s.8-261.84-36.29-338Z"/><rect class="cls-4" x="401.28" y="156.6" width="8.18" height="331.01"/><rect class="cls-5" x="401.28" y="160.64" width="8.18" height="2.45"/><rect class="cls-5" x="401.28" y="169.16" width="8.18" height="2.45"/><rect class="cls-5" x="401.28" y="177.67" width="8.18" height="2.45"/><rect class="cls-5" x="401.28" y="186.19" width="8.18" height="2.45"/><rect class="cls-5" x="401.28" y="194.7" width="8.18" height="2.45"/><rect class="cls-5" x="401.28" y="203.22" width="8.18" height="2.45"/><rect class="cls-5" x="401.28" y="211.73" width="8.18" height="2.45"/><rect class="cls-5" x="401.28" y="220.25" width="8.18" height="2.45"/><rect class="cls-5" x="401.28" y="228.77" width="8.18" height="2.45"/><rect class="cls-5" x="401.28" y="237.28" width="8.18" height="2.45"/><rect class="cls-5" x="401.28" y="245.8" width="8.18" height="2.45"/><rect class="cls-5" x="401.28" y="254.31" width="8.18" height="2.45"/><rect class="cls-5" x="401.28" y="262.83" width="8.18" height="2.45"/><rect class="cls-5" x="401.28" y="271.34" width="8.18" height="2.45"/><rect class="cls-5" x="401.28" y="279.86" width="8.18" height="2.45"/><rect class="cls-5" x="401.28" y="288.37" width="8.18" height="2.45"/><rect class="cls-5" x="401.28" y="296.89" width="8.18" height="2.45"/><rect class="cls-5" x="401.28" y="305.41" width="8.18" height="2.45"/><rect class="cls-5" x="401.28" y="313.92" width="8.18" height="2.45"/><rect class="cls-5" x="401.28" y="322.44" width="8.18" height="2.45"/><rect class="cls-5" x="401.28" y="330.95" width="8.18" height="2.45"/><rect class="cls-5" x="401.28" y="339.47" width="8.18" height="2.45"/><rect class="cls-5" x="401.28" y="347.98" width="8.18" height="2.45"/><rect class="cls-5" x="401.28" y="356.5" width="8.18" height="2.45"/><rect class="cls-5" x="401.28" y="365.01" width="8.18" height="2.45"/><rect class="cls-5" x="401.28" y="373.53" width="8.18" height="2.45"/><rect class="cls-5" x="401.28" y="382.04" width="8.18" height="2.45"/><rect class="cls-5" x="401.28" y="390.56" width="8.18" height="2.45"/><rect class="cls-5" x="401.28" y="399.08" width="8.18" height="2.45"/><rect class="cls-5" x="401.28" y="407.59" width="8.18" height="2.45"/><rect class="cls-5" x="401.28" y="416.11" width="8.18" height="2.45"/><rect class="cls-5" x="401.28" y="424.62" width="8.18" height="2.45"/><rect class="cls-5" x="401.28" y="433.14" width="8.18" height="2.45"/><rect class="cls-5" x="401.28" y="441.65" width="8.18" height="2.45"/><rect class="cls-5" x="401.28" y="450.17" width="8.18" height="2.45"/><rect class="cls-5" x="401.28" y="458.68" width="8.18" height="2.45"/><rect class="cls-5" x="401.28" y="467.2" width="8.18" height="2.45"/><rect class="cls-5" x="401.28" y="475.72" width="8.18" height="2.45"/><rect class="cls-6" x="413.45" y="170.38" width="1.84" height="317.22"/><rect class="cls-6" x="418.32" y="180.05" width="1.84" height="307.56"/><rect class="cls-6" x="423.19" y="193.32" width="1.84" height="294.28"/><rect class="cls-6" x="428.07" y="216.57" width="1.84" height="271.04"/><rect class="cls-6" x="432.94" y="263.77" width="1.84" height="223.83"/><rect class="cls-6" x="437.81" y="308.35" width="1.84" height="179.26"/><rect class="cls-6" x="394.82" y="170.38" width="1.84" height="317.22"/><rect class="cls-6" x="389.95" y="180.05" width="1.84" height="307.56"/><rect class="cls-6" x="385.08" y="193.32" width="1.84" height="294.28"/><rect class="cls-6" x="380.21" y="216.57" width="1.84" height="271.04"/><rect class="cls-6" x="375.34" y="263.77" width="1.84" height="223.83"/><rect class="cls-6" x="370.46" y="308.35" width="1.84" height="179.26"/><path class="cls-7" d="M966.15,450a60.56,60.56,0,0,0-60.57,60.56h121.13A60.56,60.56,0,0,0,966.15,450Z"/><path class="cls-7" d="M1035.23,481.88a28.64,28.64,0,0,0-28.65,28.64h57.29A28.64,28.64,0,0,0,1035.23,481.88Z"/><path class="cls-8" d="M944.11,375.42c-.18,1.79-.34,3.57-.51,5.35v0c-.61,7-1.17,13.95-1.66,20.95-.05,1.05-.12,2.11-.19,3.16h-4.64v-3.11h-27v16.47h-9.56v-.14h.52v-1.95h-.52v-.72h.52v-2h-.52v-.73h.52v-2h-.52V410h.52v-2h-.52v-.78h-3.66v-74.4h-2V313.1H866v19.79h-2V438H852.45v7h-5.18V424.3H845.2v-8.8H823.27v-.36h1.46l-1.67-2.39v-1.19h-.82l-.87-1.22h1.69V408.6h-1.82v-1.23h1.82v-1.72h-1.82v-1.26h1.82v-1.73h-1.82v-2.87H819.8v-3.2H816v-8.77h-2.83V376.69l-8.54-2-2-.47V355.77h-1.17V373.9l-3.45-.8v14.72h-2.36v8.77h-2v-21.7h-1.48V331.37h.8v-2.15h-1.22v-.87a1.11,1.11,0,0,0-1.06-1.15h-.65v-4.54a2,2,0,0,0-2-2.12H788v-4a2.41,2.41,0,0,0-1.72-2.36v-3.57H785a5.9,5.9,0,0,0-4.84-5.1v-3.66a.46.46,0,0,0-.33-.47v-9.28h-.87v9.28a.48.48,0,0,0-.33.47v3.66a5.87,5.87,0,0,0-4.81,5.1h-1.33v3.57a2.39,2.39,0,0,0-1.73,2.36v4h-.07a2,2,0,0,0-2,2.12v4.54H768a1.09,1.09,0,0,0-1,1.12v.9H766v2.15h.68v43.52H765.3v26.8H745V415.5H732.38v24.18h-4.15v-1.13h-18V433h-2.52V426.3H693.39V420H677.1V371.56h-2v-.82h2v-2.93h-2V367h2v-3h-2v-.82h2v-2.94h-2v-.84h2v-2.91h-2v-.86h2v-2.93h-2v-.82h2v-3h-2v-.8h2.05V285.05h-37v60.13h.09v2.95h2.56v.8h-2.58v3h2.58v.82h-2.6v2.93h2.6v.86h-2.61v2.91h2.61v.84h-2.65v2.94h2.65V364h-2.65v3h2.65v.84H640.2v2.93h2.67v.82h-2.8v36.77H627.7v-10H612.19v-16L609,373.1l-.13-.35-8.37-24.22-11.7,33.79v2.31h-.72v1.06h.72v1.41h-.72v1h.72v1.4h-.72v1.06h.72V392h-.72v1h.72v1.42h-.72v1.06h.72v1.38h-.72V398h.72v1.4h-.72v1.08h.72v1.39h-.72v1h.72v1.4h-.72v1.08h.72v1.4h-.72v1.06h.72v1.38h-.72v1.08h.72v1.4h-.72v1h.72v1.42h-.72v1h.72v1.4h-.72v1.06h.72V419h-.72v1.06h.72v1.4h-.72v1h.72V424h-.72V425h.72v1.4h-.72v.33H574.67V414.39H554.1l0-.47-.05-1.8,0-1.48,0-1.82-.05-1.46-.06-1.82,0-1.48-.05-1.8,0-1.48,0-1.8-.06-1.48,0-1.8,0-1.5-.06-1.78,0-1.5,0-1.79,0-1.49,0-1.78,0-1.51,0-1.76,0-1.52-.06-1.78,0-1.48,0-1.8-.14-5.5-8.62-3.12v4.82h-2.65l.26-13-14.88-4L525.58,376l-.14,1.8-.11,1.48-.14,1.78-.12,1.52-.12,1.76-.11,1.51-.12,1.78-.12,1.49-.12,1.79-.11,1.5-.14,1.78-.1,1.5-.12,1.8-.13,1.48-.12,1.8-.1,1.48-.14,1.8-.11,1.48-.14,1.82-.1,1.46-.12,1.82-.11,1.48-.14,1.8-.12,1.48-.12,1.81-.09,1.47-.14,1.79-.1,1.49-.14,1.79-.11,1.49-.12,1.81-.1,1.47-.13,1.79-.12,1.5-.12,1.78-.12,1.5-.12,1.7H506.21v7.69H495.66v-17H484.32V397.12h-6.61V353.87h-47.1V510.52H974.77v-135Zm-280.79-3.86h0v-.82h0Zm0-3.75h0V367h0Zm0-3.79h0v-.82h0Zm0-3.76h0v-.84h0Zm0-3.75h0v-.86h0Zm0-3.79h0v-.82h0Zm0-3.79h0v-.8h0Z"/><rect class="cls-9" x="767.74" y="378.41" width="31.89" height="76.21"/><rect class="cls-9" x="771.59" y="358.5" width="12.1" height="28.79"/><path class="cls-10" d="M982.72,485.75a24.78,24.78,0,0,0-24.78,24.77h49.55A24.77,24.77,0,0,0,982.72,485.75Z"/><path class="cls-10" d="M1011,498.81a11.71,11.71,0,0,0-11.72,11.71h23.43A11.71,11.71,0,0,0,1011,498.81Z"/><path class="cls-10" d="M171.42,474.6a36.09,36.09,0,0,0-36.08,35.92H207.5A36.08,36.08,0,0,0,171.42,474.6Z"/><path class="cls-10" d="M216.41,489.38a21.32,21.32,0,0,0-21.31,21.14h42.62A21.32,21.32,0,0,0,216.41,489.38Z"/><path class="cls-10" d="M305.76,424.38a86.31,86.31,0,0,0-86.31,86.14H392.07A86.31,86.31,0,0,0,305.76,424.38Z"/><path class="cls-11" d="M319.89,494h-2c-2.44,0-4.41-2.28-4.41-5.1V480.7c0-2.79-2-5.05-4.39-5.05H306.6c-2.42,0-4.38-2.27-4.38-5.06v-3.53c0-2.82-2-5.1-4.42-5.1h-2.43c-2.44,0-4.41,2.28-4.41,5.1v20.78c0,2.82-2,5.1-4.42,5.1h-.83c-2.44,0-4.42-2.28-4.42-5.1v-9.49c0-2.82-2-5.1-4.42-5.1h-2.42c-2.44,0-4.42,2.28-4.42,5.1v17.18c0,2.82-2,5.1-4.42,5.1h-2.13c-2.44,0-4.42-2.28-4.42-5.1v-4c0-2.82-2-5.1-4.41-5.1h-2.46c-2.43,0-4.39,2.26-4.39,5.06v8.85a5.46,5.46,0,0,1-1.28,3.57,4.09,4.09,0,0,1-3.1,1.49,4.42,4.42,0,0,1-4.38-4.69v-1.94a7,7,0,0,0-1.65-4.59,5.29,5.29,0,0,0-4-1.91c-3.13,0-5.61,3.1-5.61,6.71v7.71c0,1.48-3.37,2.85-5.93,3.79H324.31V499.06C324.31,496.24,322.33,494,319.89,494Z"/><path class="cls-12" d="M279.49,476.24l-.25,2.6h.33c3,0,16.52-2.26,18.13-14.81l-2.58-.34C293.72,474.52,281.16,476.36,279.49,476.24Z"/><path class="cls-12" d="M268.74,465.08a32.17,32.17,0,0,1-.66,22.08l1.18.57-1.18-.57,1.18.57,1.18.56a34.27,34.27,0,0,0,.78-24Z"/><path class="cls-12" d="M278.88,464.23c0,.06,1.69,6.25-1.82,14-4.43,9.8-15.26,10.17-15.72,10.18l0,1.3,0-1.3,0,1.3,0,1.31c.53,0,12.93-.39,18.05-11.72,3.92-8.68,2-15.51,1.95-15.8Z"/><path class="cls-13" d="M266.36,427.1a39.53,39.53,0,0,0-39.52,39.52h79A39.52,39.52,0,0,0,266.36,427.1Z"/><path class="cls-12" d="M250.4,458.68h-2.61v9.24c0,6.3,5.54,13.37,5.77,13.67l2.05-1.62c-.05-.07-5.21-6.65-5.21-12.05Z"/><path class="cls-12" d="M192.55,450.69l-2.15,1.48c.38.56,9.13,13,28.25,13,1,0,2.12,0,3.23-.12l-.18-2.6C201.86,463.86,192.92,451.23,192.55,450.69Z"/><path class="cls-12" d="M211.56,450.8l-2.28,1.27c8.53,15.35,23.13,17.08,23.74,17.15l.28-2.6A30.92,30.92,0,0,1,211.56,450.8Z"/><path class="cls-12" d="M242.63,463.76v-13.2H240v13.2c0,9.66,9.18,15.84,9.57,16.1l1.44-2.17C251,477.63,242.63,472,242.63,463.76Z"/><path class="cls-12" d="M247,476.89a12.61,12.61,0,0,1-12.59-12.6V453.87H231v10.42A16.09,16.09,0,0,0,247,480.37,12.61,12.61,0,0,1,259.62,493v17.56h3.48V493A16.09,16.09,0,0,0,247,476.89Z"/><path class="cls-13" d="M228.75,397.43A39.52,39.52,0,0,0,189.23,437h79A39.51,39.51,0,0,0,228.75,397.43Z"/><path class="cls-13" d="M273.6,417.19A28.81,28.81,0,0,0,244.79,446H302.4A28.8,28.8,0,0,0,273.6,417.19Z"/><path class="cls-14" d="M287.18,418.52a28.34,28.34,0,0,0-28.34,28.34h56.68A28.34,28.34,0,0,0,287.18,418.52Z"/><path class="cls-15" d="M220,414a40.9,40.9,0,0,0-40.9,40.9h81.8A40.9,40.9,0,0,0,220,414Z"/><path class="cls-15" d="M265.16,433.42a28.33,28.33,0,0,0-28.33,28.34H293.5A28.34,28.34,0,0,0,265.16,433.42Z"/><rect class="cls-16" x="733.63" y="270.72" width="42.3" height="213.85"/><rect class="cls-17" x="733.55" y="298.49" width="42.38" height="3.84"/><rect class="cls-17" x="733.55" y="306.96" width="42.38" height="3.84"/><rect class="cls-17" x="733.55" y="315.43" width="42.38" height="3.84"/><rect class="cls-17" x="733.55" y="323.9" width="42.38" height="3.84"/><rect class="cls-17" x="733.55" y="332.36" width="42.38" height="3.84"/><rect class="cls-17" x="733.55" y="340.83" width="42.38" height="3.83"/><rect class="cls-17" x="733.55" y="349.3" width="42.38" height="3.83"/><rect class="cls-17" x="733.55" y="357.77" width="42.38" height="3.84"/><rect class="cls-17" x="733.55" y="366.23" width="42.38" height="3.84"/><rect class="cls-17" x="733.55" y="374.7" width="42.38" height="3.84"/><rect class="cls-17" x="733.55" y="383.17" width="42.38" height="3.84"/><rect class="cls-17" x="733.55" y="391.64" width="42.38" height="3.84"/><rect class="cls-17" x="733.55" y="400.1" width="42.38" height="3.84"/><rect class="cls-17" x="733.55" y="408.57" width="42.38" height="3.84"/><rect class="cls-17" x="733.55" y="417.04" width="42.38" height="3.84"/><rect class="cls-17" x="733.55" y="425.51" width="42.38" height="3.84"/><rect class="cls-17" x="733.55" y="433.97" width="42.38" height="3.84"/><rect class="cls-17" x="733.55" y="442.44" width="42.38" height="3.84"/><rect class="cls-17" x="733.55" y="450.91" width="42.38" height="3.84"/><rect class="cls-17" x="733.55" y="459.38" width="42.38" height="3.84"/><rect class="cls-17" x="733.55" y="467.84" width="42.38" height="3.84"/><rect class="cls-17" x="733.55" y="476.31" width="42.38" height="3.84"/><rect class="cls-18" x="751.05" y="287" width="19.45" height="8.41"/><rect class="cls-19" x="745.73" y="270.72" width="30.2" height="213.85"/><rect class="cls-20" x="614.64" y="174.98" width="97.5" height="335.54"/><rect class="cls-21" x="712.14" y="174.98" width="21.49" height="335.54"/><g class="cls-22"><rect class="cls-21" x="614.64" y="185.24" width="97.5" height="2.96"/><rect class="cls-21" x="614.64" y="198.4" width="97.5" height="2.96"/><rect class="cls-21" x="614.64" y="211.56" width="97.5" height="2.96"/><rect class="cls-21" x="614.64" y="224.72" width="97.5" height="2.96"/><rect class="cls-21" x="614.64" y="237.88" width="97.5" height="2.96"/><rect class="cls-21" x="614.64" y="251.04" width="97.5" height="2.96"/><rect class="cls-21" x="614.64" y="264.2" width="97.5" height="2.96"/><rect class="cls-21" x="614.64" y="277.36" width="97.5" height="2.96"/><rect class="cls-21" x="614.64" y="290.52" width="97.5" height="2.96"/><rect class="cls-21" x="614.64" y="303.68" width="97.5" height="2.96"/><rect class="cls-21" x="614.64" y="316.84" width="97.5" height="2.96"/><rect class="cls-21" x="614.64" y="330" width="97.5" height="2.96"/><rect class="cls-21" x="614.64" y="343.16" width="97.5" height="2.96"/><rect class="cls-21" x="614.64" y="356.32" width="97.5" height="2.96"/><rect class="cls-21" x="614.64" y="369.48" width="97.5" height="2.96"/><rect class="cls-21" x="614.64" y="382.64" width="97.5" height="2.96"/><rect class="cls-21" x="614.64" y="395.8" width="97.5" height="2.96"/><rect class="cls-21" x="614.64" y="408.96" width="97.5" height="2.96"/><rect class="cls-21" x="614.64" y="422.12" width="97.5" height="2.96"/><rect class="cls-21" x="614.64" y="435.28" width="97.5" height="2.96"/><rect class="cls-21" x="614.64" y="448.44" width="97.5" height="2.96"/><rect class="cls-21" x="614.64" y="461.6" width="97.5" height="2.96"/><rect class="cls-21" x="614.64" y="474.77" width="97.5" height="2.96"/><rect class="cls-21" x="614.64" y="487.93" width="97.5" height="2.96"/><rect class="cls-21" x="614.64" y="501.09" width="97.5" height="2.96"/></g><rect class="cls-23" x="614.64" y="174.98" width="43.58" height="335.54"/><rect class="cls-24" x="664.13" y="174.99" width="7.91" height="335.54"/><rect class="cls-24" x="678.46" y="174.99" width="17.33" height="335.54"/><path class="cls-24" d="M658.21,412.8v97.72h75.42V337.38A75.42,75.42,0,0,0,658.21,412.8Z"/><rect class="cls-20" x="720.3" y="182.12" width="8.36" height="19.69"/><rect class="cls-25" x="695.34" y="416.01" width="138" height="94.51"/><rect class="cls-20" x="689.09" y="428.67" width="150.49" height="70.32"/><rect class="cls-23" x="689.09" y="483.44" width="150.49" height="7.47"/><rect class="cls-23" x="689.09" y="468.14" width="150.49" height="7.47"/><rect class="cls-23" x="689.09" y="452.78" width="150.49" height="7.47"/><rect class="cls-23" x="689.09" y="437.14" width="150.49" height="7.47"/><rect class="cls-26" x="800.01" y="502.89" width="27.31" height="7.64"/><rect class="cls-26" x="766.6" y="502.89" width="27.31" height="7.64"/><rect class="cls-26" x="733.65" y="502.89" width="27.31" height="7.64"/><rect class="cls-26" x="699.89" y="502.89" width="27.31" height="7.64"/><rect class="cls-25" x="838.31" y="428.67" width="1.31" height="70.32"/><rect class="cls-25" x="828.95" y="428.67" width="1.31" height="70.32"/><rect class="cls-25" x="819.58" y="428.67" width="1.31" height="70.32"/><rect class="cls-25" x="810.21" y="428.67" width="1.31" height="70.32"/><rect class="cls-25" x="800.84" y="428.67" width="1.31" height="70.32"/><rect class="cls-25" x="791.48" y="428.67" width="1.31" height="70.32"/><rect class="cls-25" x="782.11" y="428.67" width="1.31" height="70.32"/><rect class="cls-25" x="772.74" y="428.67" width="1.31" height="70.32"/><rect class="cls-25" x="763.37" y="428.67" width="1.31" height="70.32"/><rect class="cls-25" x="754.01" y="428.67" width="1.31" height="70.32"/><rect class="cls-25" x="744.64" y="428.67" width="1.31" height="70.32"/><rect class="cls-25" x="735.27" y="428.67" width="1.31" height="70.32"/><rect class="cls-25" x="725.9" y="428.67" width="1.31" height="70.32"/><rect class="cls-25" x="716.54" y="428.67" width="1.31" height="70.32"/><rect class="cls-25" x="707.17" y="428.67" width="1.31" height="70.32"/><rect class="cls-25" x="697.8" y="428.67" width="1.31" height="70.32"/><rect class="cls-25" x="688.44" y="428.67" width="1.31" height="70.32"/><rect class="cls-27" x="688.44" y="428.67" width="74.94" height="70.32"/><rect class="cls-28" x="456.57" y="278.36" width="32.64" height="72.26"/><rect class="cls-29" x="463.79" y="278.36" width="18.2" height="72.21"/><rect class="cls-5" x="463.79" y="278.36" width="18.2" height="3.17"/><rect class="cls-5" x="463.79" y="284.12" width="18.2" height="3.17"/><rect class="cls-5" x="463.79" y="289.88" width="18.2" height="3.17"/><rect class="cls-5" x="463.79" y="295.63" width="18.2" height="3.17"/><rect class="cls-5" x="463.79" y="301.39" width="18.2" height="3.17"/><rect class="cls-5" x="463.79" y="307.15" width="18.2" height="3.17"/><rect class="cls-5" x="463.79" y="312.91" width="18.2" height="3.17"/><rect class="cls-5" x="463.79" y="318.67" width="18.2" height="3.17"/><rect class="cls-5" x="463.79" y="324.42" width="18.2" height="3.17"/><rect class="cls-5" x="463.79" y="330.18" width="18.2" height="3.17"/><rect class="cls-5" x="463.79" y="335.94" width="18.2" height="3.17"/><rect class="cls-5" x="463.79" y="341.7" width="18.2" height="3.17"/><rect class="cls-5" x="463.79" y="347.45" width="18.2" height="3.17"/><rect class="cls-30" x="485.58" y="278.36" width="3.62" height="3.17"/><rect class="cls-30" x="485.58" y="284.12" width="3.62" height="3.17"/><rect class="cls-30" x="485.58" y="289.88" width="3.62" height="3.17"/><rect class="cls-30" x="485.58" y="295.63" width="3.62" height="3.17"/><rect class="cls-30" x="485.58" y="301.39" width="3.62" height="3.17"/><rect class="cls-30" x="485.58" y="307.15" width="3.62" height="3.17"/><rect class="cls-30" x="485.58" y="312.91" width="3.62" height="3.17"/><rect class="cls-30" x="485.58" y="318.67" width="3.62" height="3.17"/><rect class="cls-30" x="485.58" y="324.42" width="3.62" height="3.17"/><rect class="cls-30" x="485.58" y="330.18" width="3.62" height="3.17"/><rect class="cls-30" x="485.58" y="335.94" width="3.62" height="3.17"/><rect class="cls-30" x="485.58" y="341.7" width="3.62" height="3.17"/><rect class="cls-30" x="485.58" y="347.45" width="3.62" height="3.17"/><rect class="cls-30" x="456.57" y="278.34" width="3.62" height="3.17"/><rect class="cls-30" x="456.57" y="284.1" width="3.62" height="3.17"/><rect class="cls-30" x="456.57" y="289.85" width="3.62" height="3.17"/><rect class="cls-30" x="456.57" y="295.61" width="3.62" height="3.17"/><rect class="cls-30" x="456.57" y="301.37" width="3.62" height="3.17"/><rect class="cls-30" x="456.57" y="307.13" width="3.62" height="3.17"/><rect class="cls-30" x="456.57" y="312.88" width="3.62" height="3.17"/><rect class="cls-30" x="456.57" y="318.64" width="3.62" height="3.17"/><rect class="cls-30" x="456.57" y="324.4" width="3.62" height="3.17"/><rect class="cls-30" x="456.57" y="330.16" width="3.62" height="3.17"/><rect class="cls-30" x="456.57" y="335.92" width="3.62" height="3.17"/><rect class="cls-30" x="456.57" y="341.67" width="3.62" height="3.17"/><rect class="cls-30" x="456.57" y="347.43" width="3.62" height="3.17"/><rect class="cls-31" x="489.2" y="278.36" width="12.4" height="72.26"/><rect class="cls-26" x="493.14" y="278.36" width="5.19" height="72.21"/><rect class="cls-32" x="493.14" y="278.36" width="5.19" height="3.17"/><rect class="cls-32" x="493.14" y="284.12" width="5.19" height="3.17"/><rect class="cls-32" x="493.14" y="289.88" width="5.19" height="3.17"/><rect class="cls-32" x="493.14" y="295.63" width="5.19" height="3.17"/><rect class="cls-32" x="493.14" y="301.39" width="5.19" height="3.17"/><rect class="cls-32" x="493.14" y="307.15" width="5.19" height="3.17"/><rect class="cls-32" x="493.14" y="312.91" width="5.19" height="3.17"/><rect class="cls-32" x="493.14" y="318.67" width="5.19" height="3.17"/><rect class="cls-32" x="493.14" y="324.42" width="5.19" height="3.17"/><rect class="cls-32" x="493.14" y="330.18" width="5.19" height="3.17"/><rect class="cls-32" x="493.14" y="335.94" width="5.19" height="3.17"/><rect class="cls-32" x="493.14" y="341.7" width="5.19" height="3.17"/><rect class="cls-32" x="493.14" y="347.45" width="5.19" height="3.17"/><rect class="cls-26" x="471.82" y="278.36" width="2.13" height="72.26"/><polygon class="cls-28" points="454.04 430.14 460.29 430.14 483.99 430.14 490.4 430.14 490.4 355.33 454.04 355.33 454.04 430.14"/><rect class="cls-29" x="462.08" y="355.33" width="20.27" height="74.8"/><rect class="cls-5" x="462.08" y="355.33" width="20.27" height="3.17"/><rect class="cls-5" x="462.08" y="361.09" width="20.27" height="3.17"/><rect class="cls-5" x="462.08" y="366.85" width="20.27" height="3.17"/><rect class="cls-5" x="462.08" y="372.61" width="20.27" height="3.17"/><rect class="cls-5" x="462.08" y="378.36" width="20.27" height="3.17"/><rect class="cls-5" x="462.08" y="384.12" width="20.27" height="3.17"/><rect class="cls-5" x="462.08" y="389.88" width="20.27" height="3.17"/><rect class="cls-5" x="462.08" y="395.64" width="20.27" height="3.17"/><rect class="cls-5" x="462.08" y="401.4" width="20.27" height="3.17"/><rect class="cls-5" x="462.08" y="407.15" width="20.27" height="3.17"/><rect class="cls-5" x="462.08" y="412.91" width="20.27" height="3.17"/><rect class="cls-5" x="462.08" y="418.67" width="20.27" height="3.17"/><rect class="cls-5" x="462.08" y="424.43" width="20.27" height="3.17"/><rect class="cls-30" x="486.36" y="355.33" width="4.04" height="3.17"/><rect class="cls-30" x="486.36" y="361.09" width="4.04" height="3.17"/><rect class="cls-30" x="486.36" y="366.85" width="4.04" height="3.17"/><rect class="cls-30" x="486.36" y="372.61" width="4.04" height="3.17"/><rect class="cls-30" x="486.36" y="378.36" width="4.04" height="3.17"/><rect class="cls-30" x="486.36" y="384.12" width="4.04" height="3.17"/><rect class="cls-30" x="486.36" y="389.88" width="4.04" height="3.17"/><rect class="cls-30" x="486.36" y="395.64" width="4.04" height="3.17"/><rect class="cls-30" x="486.36" y="401.4" width="4.04" height="3.17"/><rect class="cls-30" x="486.36" y="407.15" width="4.04" height="3.17"/><rect class="cls-30" x="486.36" y="412.91" width="4.04" height="3.17"/><rect class="cls-30" x="486.36" y="418.67" width="4.04" height="3.17"/><rect class="cls-30" x="486.36" y="424.43" width="4.04" height="3.17"/><rect class="cls-30" x="454.04" y="355.33" width="4.04" height="3.17"/><rect class="cls-30" x="454.04" y="361.09" width="4.04" height="3.17"/><rect class="cls-30" x="454.04" y="366.85" width="4.04" height="3.17"/><rect class="cls-30" x="454.04" y="372.61" width="4.04" height="3.17"/><rect class="cls-30" x="454.04" y="378.36" width="4.04" height="3.17"/><rect class="cls-30" x="454.04" y="384.12" width="4.04" height="3.17"/><rect class="cls-30" x="454.04" y="389.88" width="4.04" height="3.17"/><rect class="cls-30" x="454.04" y="395.64" width="4.04" height="3.17"/><rect class="cls-30" x="454.04" y="401.4" width="4.04" height="3.17"/><rect class="cls-30" x="454.04" y="407.15" width="4.04" height="3.17"/><rect class="cls-30" x="454.04" y="412.91" width="4.04" height="3.17"/><rect class="cls-30" x="454.04" y="418.67" width="4.04" height="3.17"/><rect class="cls-30" x="454.04" y="424.43" width="4.04" height="3.17"/><rect class="cls-31" x="490.4" y="355.33" width="13.82" height="74.79"/><rect class="cls-26" x="494.79" y="355.33" width="5.79" height="72.21"/><rect class="cls-32" x="494.79" y="355.33" width="5.79" height="3.17"/><rect class="cls-32" x="494.79" y="361.09" width="5.79" height="3.17"/><rect class="cls-32" x="494.79" y="366.85" width="5.79" height="3.17"/><rect class="cls-32" x="494.79" y="372.61" width="5.79" height="3.17"/><rect class="cls-32" x="494.79" y="378.36" width="5.79" height="3.17"/><rect class="cls-32" x="494.79" y="384.12" width="5.79" height="3.17"/><rect class="cls-32" x="494.79" y="389.88" width="5.79" height="3.17"/><rect class="cls-32" x="494.79" y="395.64" width="5.79" height="3.17"/><rect class="cls-32" x="494.79" y="401.4" width="5.79" height="3.17"/><rect class="cls-32" x="494.79" y="407.15" width="5.79" height="3.17"/><rect class="cls-32" x="494.79" y="412.91" width="5.79" height="3.17"/><rect class="cls-32" x="494.79" y="418.67" width="5.79" height="3.17"/><rect class="cls-32" x="494.79" y="424.43" width="5.79" height="3.17"/><rect class="cls-26" x="471.03" y="355.33" width="2.38" height="72.26"/><rect class="cls-28" x="454.04" y="430.14" width="36.36" height="74.52"/><rect class="cls-29" x="462.08" y="430.14" width="20.27" height="74.53"/><rect class="cls-5" x="462.08" y="430.14" width="20.27" height="2.89"/><rect class="cls-5" x="462.08" y="435.62" width="20.27" height="3.17"/><rect class="cls-5" x="462.08" y="441.37" width="20.27" height="3.17"/><rect class="cls-5" x="462.08" y="447.13" width="20.27" height="3.17"/><rect class="cls-5" x="462.08" y="452.89" width="20.27" height="3.17"/><rect class="cls-5" x="462.08" y="458.65" width="20.27" height="3.17"/><rect class="cls-5" x="462.08" y="464.4" width="20.27" height="3.17"/><rect class="cls-5" x="462.08" y="470.16" width="20.27" height="3.17"/><rect class="cls-5" x="462.08" y="475.92" width="20.27" height="3.17"/><rect class="cls-5" x="462.08" y="481.68" width="20.27" height="3.17"/><rect class="cls-5" x="462.08" y="487.44" width="20.27" height="3.17"/><rect class="cls-5" x="462.08" y="493.19" width="20.27" height="3.17"/><rect class="cls-5" x="462.08" y="498.95" width="20.27" height="3.17"/><rect class="cls-30" x="486.36" y="430.14" width="4.04" height="2.89"/><rect class="cls-30" x="486.36" y="435.62" width="4.04" height="3.17"/><rect class="cls-30" x="486.36" y="441.37" width="4.04" height="3.17"/><rect class="cls-30" x="486.36" y="447.13" width="4.04" height="3.17"/><rect class="cls-30" x="486.36" y="452.89" width="4.04" height="3.17"/><rect class="cls-30" x="486.36" y="458.65" width="4.04" height="3.17"/><rect class="cls-30" x="486.36" y="464.4" width="4.04" height="3.17"/><rect class="cls-30" x="486.36" y="470.16" width="4.04" height="3.17"/><rect class="cls-30" x="486.36" y="475.92" width="4.04" height="3.17"/><rect class="cls-30" x="486.36" y="481.68" width="4.04" height="3.17"/><rect class="cls-30" x="486.36" y="487.44" width="4.04" height="3.17"/><rect class="cls-30" x="486.36" y="493.19" width="4.04" height="3.17"/><rect class="cls-30" x="486.36" y="498.95" width="4.04" height="3.17"/><rect class="cls-30" x="454.04" y="430.14" width="4.04" height="2.89"/><rect class="cls-30" x="454.04" y="435.62" width="4.04" height="3.17"/><rect class="cls-30" x="454.04" y="441.37" width="4.04" height="3.17"/><rect class="cls-30" x="454.04" y="447.13" width="4.04" height="3.17"/><rect class="cls-30" x="454.04" y="452.89" width="4.04" height="3.17"/><rect class="cls-30" x="454.04" y="458.65" width="4.04" height="3.17"/><rect class="cls-30" x="454.04" y="464.4" width="4.04" height="3.17"/><rect class="cls-30" x="454.04" y="470.16" width="4.04" height="3.17"/><rect class="cls-30" x="454.04" y="475.92" width="4.04" height="3.17"/><rect class="cls-30" x="454.04" y="481.68" width="4.04" height="3.17"/><rect class="cls-30" x="454.04" y="487.44" width="4.04" height="3.17"/><rect class="cls-30" x="454.04" y="493.19" width="4.04" height="3.17"/><rect class="cls-30" x="454.04" y="498.95" width="4.04" height="3.17"/><rect class="cls-31" x="490.4" y="430.14" width="13.82" height="74.51"/><rect class="cls-26" x="494.79" y="430.14" width="5.79" height="71.93"/><rect class="cls-32" x="494.79" y="430.14" width="5.79" height="2.89"/><rect class="cls-32" x="494.79" y="435.62" width="5.79" height="3.17"/><rect class="cls-32" x="494.79" y="441.37" width="5.79" height="3.17"/><rect class="cls-32" x="494.79" y="447.13" width="5.79" height="3.17"/><rect class="cls-32" x="494.79" y="452.89" width="5.79" height="3.17"/><rect class="cls-32" x="494.79" y="458.65" width="5.79" height="3.17"/><rect class="cls-32" x="494.79" y="464.4" width="5.79" height="3.17"/><rect class="cls-32" x="494.79" y="470.16" width="5.79" height="3.17"/><rect class="cls-32" x="494.79" y="475.92" width="5.79" height="3.17"/><rect class="cls-32" x="494.79" y="481.68" width="5.79" height="3.17"/><rect class="cls-32" x="494.79" y="487.44" width="5.79" height="3.17"/><rect class="cls-32" x="494.79" y="493.19" width="5.79" height="3.17"/><rect class="cls-32" x="494.79" y="498.95" width="5.79" height="3.17"/><rect class="cls-26" x="471.03" y="430.14" width="2.38" height="71.98"/><rect class="cls-28" x="454.04" y="504.66" width="36.36" height="5.86"/><rect class="cls-29" x="462.08" y="504.66" width="20.27" height="5.86"/><rect class="cls-5" x="462.08" y="504.66" width="20.27" height="2.89"/><rect class="cls-5" x="462.08" y="510.14" width="20.27" height="0.38"/><rect class="cls-30" x="486.36" y="504.66" width="4.04" height="2.89"/><rect class="cls-30" x="486.36" y="510.14" width="4.04" height="0.38"/><rect class="cls-30" x="454.04" y="504.66" width="4.04" height="2.89"/><rect class="cls-30" x="454.04" y="510.14" width="4.04" height="0.38"/><rect class="cls-31" x="490.4" y="504.18" width="13.82" height="6.34"/><rect class="cls-26" x="494.79" y="504.66" width="5.79" height="5.86"/><rect class="cls-32" x="494.79" y="504.66" width="5.79" height="2.89"/><rect class="cls-32" x="494.79" y="510.14" width="5.79" height="0.38"/><rect class="cls-26" x="471.03" y="504.66" width="2.38" height="5.86"/><rect class="cls-9" x="455.37" y="274.79" width="47.64" height="3.57"/><rect class="cls-33" x="490.72" y="274.79" width="12.29" height="3.57"/><path class="cls-34" d="M499,271.42H458.94a1.9,1.9,0,0,0-1.9,1.9v1.47h43.85v-1.47A1.9,1.9,0,0,0,499,271.42Z"/><path class="cls-35" d="M487.06,271.42H458.87a1.83,1.83,0,0,0-1.83,1.83v1.54H488.9v-1.54A1.83,1.83,0,0,0,487.06,271.42Z"/><path class="cls-30" d="M494.35,260.37H463.57a3.5,3.5,0,0,0-3.49,3.5v7.55h37.77v-7.55A3.5,3.5,0,0,0,494.35,260.37Z"/><path class="cls-36" d="M494.35,260.37H463.57a3.5,3.5,0,0,0-3.49,3.5v.2h37.77v-.2A3.5,3.5,0,0,0,494.35,260.37Z"/><rect class="cls-9" x="483.91" y="260.37" width="6.02" height="11.04"/><rect class="cls-30" x="454.04" y="350.62" width="50.18" height="4.71"/><rect class="cls-37" x="490.43" y="350.62" width="13.79" height="4.71"/><rect class="cls-30" x="504.41" y="225.87" width="23.26" height="284.65"/><rect class="cls-38" x="527.66" y="225.87" width="32.95" height="284.65"/><rect class="cls-10" x="504.42" y="230.82" width="23.23" height="279.7"/><rect class="cls-39" x="527.66" y="230.85" width="32.95" height="279.68"/><rect class="cls-30" x="525.91" y="230.82" width="8.64" height="2.97"/><rect class="cls-30" x="555.3" y="230.82" width="8.64" height="2.97"/><rect class="cls-40" x="519.71" y="230.82" width="6.2" height="2.97"/><rect class="cls-40" x="501.31" y="230.82" width="6.2" height="2.97"/><rect class="cls-30" x="525.91" y="235.91" width="8.64" height="2.97"/><rect class="cls-30" x="555.3" y="235.91" width="8.64" height="2.97"/><rect class="cls-40" x="519.71" y="235.91" width="6.2" height="2.97"/><rect class="cls-40" x="501.31" y="235.91" width="6.2" height="2.97"/><rect class="cls-30" x="525.91" y="241" width="8.64" height="2.97"/><rect class="cls-30" x="555.3" y="241" width="8.64" height="2.97"/><rect class="cls-40" x="519.71" y="241" width="6.2" height="2.97"/><rect class="cls-40" x="501.31" y="241" width="6.2" height="2.97"/><rect class="cls-30" x="525.91" y="246.09" width="8.64" height="2.97"/><rect class="cls-30" x="555.3" y="246.09" width="8.64" height="2.97"/><rect class="cls-40" x="519.71" y="246.09" width="6.2" height="2.97"/><rect class="cls-40" x="501.31" y="246.09" width="6.2" height="2.97"/><rect class="cls-30" x="525.91" y="251.17" width="8.64" height="2.97"/><rect class="cls-30" x="555.3" y="251.17" width="8.64" height="2.97"/><rect class="cls-40" x="519.71" y="251.17" width="6.2" height="2.97"/><rect class="cls-40" x="501.31" y="251.17" width="6.2" height="2.97"/><rect class="cls-30" x="525.91" y="256.26" width="8.64" height="2.97"/><rect class="cls-30" x="555.3" y="256.26" width="8.64" height="2.97"/><rect class="cls-40" x="519.71" y="256.26" width="6.2" height="2.97"/><rect class="cls-40" x="501.31" y="256.26" width="6.2" height="2.97"/><rect class="cls-30" x="525.91" y="261.35" width="8.64" height="2.97"/><rect class="cls-30" x="555.3" y="261.35" width="8.64" height="2.97"/><rect class="cls-40" x="519.71" y="261.35" width="6.2" height="2.97"/><rect class="cls-40" x="501.31" y="261.35" width="6.2" height="2.97"/><rect class="cls-30" x="525.91" y="266.44" width="8.64" height="2.97"/><rect class="cls-30" x="555.3" y="266.44" width="8.64" height="2.97"/><rect class="cls-40" x="519.71" y="266.44" width="6.2" height="2.97"/><rect class="cls-40" x="501.31" y="266.44" width="6.2" height="2.97"/><rect class="cls-30" x="525.91" y="271.53" width="8.64" height="2.97"/><rect class="cls-30" x="555.3" y="271.53" width="8.64" height="2.97"/><rect class="cls-40" x="519.71" y="271.53" width="6.2" height="2.97"/><rect class="cls-40" x="501.31" y="271.53" width="6.2" height="2.97"/><rect class="cls-30" x="525.91" y="276.61" width="8.64" height="2.97"/><rect class="cls-30" x="555.3" y="276.61" width="8.64" height="2.97"/><rect class="cls-40" x="519.71" y="276.61" width="6.2" height="2.97"/><rect class="cls-40" x="501.31" y="276.61" width="6.2" height="2.97"/><rect class="cls-30" x="525.91" y="281.7" width="8.64" height="2.97"/><rect class="cls-30" x="555.3" y="281.7" width="8.64" height="2.97"/><rect class="cls-40" x="519.71" y="281.7" width="6.2" height="2.97"/><rect class="cls-40" x="501.31" y="281.7" width="6.2" height="2.97"/><rect class="cls-30" x="525.91" y="286.79" width="8.64" height="2.97"/><rect class="cls-30" x="555.3" y="286.79" width="8.64" height="2.97"/><rect class="cls-40" x="519.71" y="286.79" width="6.2" height="2.97"/><rect class="cls-40" x="501.31" y="286.79" width="6.2" height="2.97"/><rect class="cls-30" x="525.91" y="291.88" width="8.64" height="2.97"/><rect class="cls-30" x="555.3" y="291.88" width="8.64" height="2.97"/><rect class="cls-40" x="519.71" y="291.88" width="6.2" height="2.97"/><rect class="cls-40" x="501.31" y="291.88" width="6.2" height="2.97"/><rect class="cls-30" x="525.91" y="296.97" width="8.64" height="2.97"/><rect class="cls-30" x="555.3" y="296.97" width="8.64" height="2.97"/><rect class="cls-40" x="519.71" y="296.97" width="6.2" height="2.97"/><rect class="cls-40" x="501.31" y="296.97" width="6.2" height="2.97"/><rect class="cls-30" x="525.91" y="302.05" width="8.64" height="2.97"/><rect class="cls-30" x="555.3" y="302.05" width="8.64" height="2.97"/><rect class="cls-40" x="519.71" y="302.05" width="6.2" height="2.97"/><rect class="cls-40" x="501.31" y="302.05" width="6.2" height="2.97"/><rect class="cls-30" x="525.91" y="307.14" width="8.64" height="2.97"/><rect class="cls-30" x="555.3" y="307.14" width="8.64" height="2.97"/><rect class="cls-40" x="519.71" y="307.14" width="6.2" height="2.97"/><rect class="cls-40" x="501.31" y="307.14" width="6.2" height="2.97"/><rect class="cls-30" x="525.91" y="312.23" width="8.64" height="2.97"/><rect class="cls-30" x="555.3" y="312.23" width="8.64" height="2.97"/><rect class="cls-40" x="519.71" y="312.23" width="6.2" height="2.97"/><rect class="cls-40" x="501.31" y="312.23" width="6.2" height="2.97"/><rect class="cls-30" x="525.91" y="317.32" width="8.64" height="2.97"/><rect class="cls-30" x="555.3" y="317.32" width="8.64" height="2.97"/><rect class="cls-40" x="519.71" y="317.32" width="6.2" height="2.97"/><rect class="cls-40" x="501.31" y="317.32" width="6.2" height="2.97"/><rect class="cls-30" x="525.91" y="322.41" width="8.64" height="2.97"/><rect class="cls-30" x="555.3" y="322.41" width="8.64" height="2.97"/><rect class="cls-40" x="519.71" y="322.41" width="6.2" height="2.97"/><rect class="cls-40" x="501.31" y="322.41" width="6.2" height="2.97"/><rect class="cls-30" x="525.91" y="327.49" width="8.64" height="2.97"/><rect class="cls-30" x="555.3" y="327.49" width="8.64" height="2.97"/><rect class="cls-40" x="519.71" y="327.49" width="6.2" height="2.97"/><rect class="cls-40" x="501.31" y="327.49" width="6.2" height="2.97"/><rect class="cls-30" x="525.91" y="332.58" width="8.64" height="2.97"/><rect class="cls-30" x="555.3" y="332.58" width="8.64" height="2.97"/><rect class="cls-40" x="519.71" y="332.58" width="6.2" height="2.97"/><rect class="cls-40" x="501.31" y="332.58" width="6.2" height="2.97"/><rect class="cls-30" x="525.91" y="337.67" width="8.64" height="2.97"/><rect class="cls-30" x="555.3" y="337.67" width="8.64" height="2.97"/><rect class="cls-40" x="519.71" y="337.67" width="6.2" height="2.97"/><rect class="cls-40" x="501.31" y="337.67" width="6.2" height="2.97"/><rect class="cls-30" x="525.91" y="342.76" width="8.64" height="2.97"/><rect class="cls-30" x="555.3" y="342.76" width="8.64" height="2.97"/><rect class="cls-40" x="519.71" y="342.76" width="6.2" height="2.97"/><rect class="cls-40" x="501.31" y="342.76" width="6.2" height="2.97"/><rect class="cls-30" x="525.91" y="347.85" width="8.64" height="2.97"/><rect class="cls-30" x="555.3" y="347.85" width="8.64" height="2.97"/><rect class="cls-40" x="519.71" y="347.85" width="6.2" height="2.97"/><rect class="cls-40" x="501.31" y="347.85" width="6.2" height="2.97"/><rect class="cls-30" x="525.91" y="352.94" width="8.64" height="2.97"/><rect class="cls-30" x="555.3" y="352.94" width="8.64" height="2.97"/><rect class="cls-40" x="519.71" y="352.94" width="6.2" height="2.97"/><rect class="cls-40" x="501.31" y="352.94" width="6.2" height="2.97"/><rect class="cls-30" x="525.91" y="358.02" width="8.64" height="2.97"/><rect class="cls-30" x="555.3" y="358.02" width="8.64" height="2.97"/><rect class="cls-40" x="519.71" y="358.02" width="6.2" height="2.97"/><rect class="cls-40" x="501.31" y="358.02" width="6.2" height="2.97"/><rect class="cls-30" x="525.91" y="363.11" width="8.64" height="2.97"/><rect class="cls-30" x="555.3" y="363.11" width="8.64" height="2.97"/><rect class="cls-40" x="519.71" y="363.11" width="6.2" height="2.97"/><rect class="cls-40" x="501.31" y="363.11" width="6.2" height="2.97"/><rect class="cls-30" x="525.91" y="368.2" width="8.64" height="2.97"/><rect class="cls-30" x="555.3" y="368.2" width="8.64" height="2.97"/><rect class="cls-40" x="519.71" y="368.2" width="6.2" height="2.97"/><rect class="cls-40" x="501.31" y="368.2" width="6.2" height="2.97"/><rect class="cls-30" x="525.91" y="373.29" width="8.64" height="2.97"/><rect class="cls-30" x="555.3" y="373.29" width="8.64" height="2.97"/><rect class="cls-40" x="519.71" y="373.29" width="6.2" height="2.97"/><rect class="cls-40" x="501.31" y="373.29" width="6.2" height="2.97"/><rect class="cls-30" x="525.91" y="378.38" width="8.64" height="2.97"/><rect class="cls-30" x="555.3" y="378.38" width="8.64" height="2.97"/><rect class="cls-40" x="519.71" y="378.38" width="6.2" height="2.97"/><rect class="cls-40" x="501.31" y="378.38" width="6.2" height="2.97"/><rect class="cls-30" x="525.91" y="383.46" width="8.64" height="2.97"/><rect class="cls-30" x="555.3" y="383.46" width="8.64" height="2.97"/><rect class="cls-40" x="519.71" y="383.46" width="6.2" height="2.97"/><rect class="cls-40" x="501.31" y="383.46" width="6.2" height="2.97"/><rect class="cls-30" x="525.91" y="388.55" width="8.64" height="2.97"/><rect class="cls-30" x="555.3" y="388.55" width="8.64" height="2.97"/><rect class="cls-40" x="519.71" y="388.55" width="6.2" height="2.97"/><rect class="cls-40" x="501.31" y="388.55" width="6.2" height="2.97"/><rect class="cls-30" x="525.91" y="393.64" width="8.64" height="2.97"/><rect class="cls-30" x="555.3" y="393.64" width="8.64" height="2.97"/><rect class="cls-40" x="519.71" y="393.64" width="6.2" height="2.97"/><rect class="cls-40" x="501.31" y="393.64" width="6.2" height="2.97"/><rect class="cls-30" x="525.91" y="398.73" width="8.64" height="2.97"/><rect class="cls-30" x="555.3" y="398.73" width="8.64" height="2.97"/><rect class="cls-40" x="519.71" y="398.73" width="6.2" height="2.97"/><rect class="cls-40" x="501.31" y="398.73" width="6.2" height="2.97"/><rect class="cls-30" x="525.91" y="403.82" width="8.64" height="2.97"/><rect class="cls-30" x="555.3" y="403.82" width="8.64" height="2.97"/><rect class="cls-40" x="519.71" y="403.82" width="6.2" height="2.97"/><rect class="cls-40" x="501.31" y="403.82" width="6.2" height="2.97"/><rect class="cls-30" x="525.91" y="408.9" width="8.64" height="2.97"/><rect class="cls-30" x="555.3" y="408.9" width="8.64" height="2.97"/><rect class="cls-40" x="519.71" y="408.9" width="6.2" height="2.97"/><rect class="cls-40" x="501.31" y="408.9" width="6.2" height="2.97"/><rect class="cls-30" x="525.91" y="413.99" width="8.64" height="2.97"/><rect class="cls-30" x="555.3" y="413.99" width="8.64" height="2.97"/><rect class="cls-40" x="519.71" y="413.99" width="6.2" height="2.97"/><rect class="cls-40" x="501.31" y="413.99" width="6.2" height="2.97"/><rect class="cls-30" x="525.91" y="419.08" width="8.64" height="2.97"/><rect class="cls-30" x="555.3" y="419.08" width="8.64" height="2.97"/><rect class="cls-40" x="519.71" y="419.08" width="6.2" height="2.97"/><rect class="cls-40" x="501.31" y="419.08" width="6.2" height="2.97"/><rect class="cls-30" x="525.91" y="424.17" width="8.64" height="2.97"/><rect class="cls-30" x="555.3" y="424.17" width="8.64" height="2.97"/><rect class="cls-40" x="519.71" y="424.17" width="6.2" height="2.97"/><rect class="cls-40" x="501.31" y="424.17" width="6.2" height="2.97"/><rect class="cls-30" x="525.91" y="429.26" width="8.64" height="2.97"/><rect class="cls-30" x="555.3" y="429.26" width="8.64" height="2.97"/><rect class="cls-40" x="519.71" y="429.26" width="6.2" height="2.97"/><rect class="cls-40" x="501.31" y="429.26" width="6.2" height="2.97"/><rect class="cls-30" x="525.91" y="434.34" width="8.64" height="2.97"/><rect class="cls-30" x="555.3" y="434.34" width="8.64" height="2.97"/><rect class="cls-40" x="519.71" y="434.34" width="6.2" height="2.97"/><rect class="cls-40" x="501.31" y="434.34" width="6.2" height="2.97"/><rect class="cls-30" x="525.91" y="439.43" width="8.64" height="2.97"/><rect class="cls-30" x="555.3" y="439.43" width="8.64" height="2.97"/><rect class="cls-40" x="519.71" y="439.43" width="6.2" height="2.97"/><rect class="cls-40" x="501.31" y="439.43" width="6.2" height="2.97"/><rect class="cls-30" x="525.91" y="444.52" width="8.64" height="2.97"/><rect class="cls-30" x="555.3" y="444.52" width="8.64" height="2.97"/><rect class="cls-40" x="519.71" y="444.52" width="6.2" height="2.97"/><rect class="cls-40" x="501.31" y="444.52" width="6.2" height="2.97"/><rect class="cls-30" x="525.91" y="449.61" width="8.64" height="2.97"/><rect class="cls-30" x="555.3" y="449.61" width="8.64" height="2.97"/><rect class="cls-40" x="519.71" y="449.61" width="6.2" height="2.97"/><rect class="cls-40" x="501.31" y="449.61" width="6.2" height="2.97"/><rect class="cls-30" x="525.91" y="454.7" width="8.64" height="2.97"/><rect class="cls-30" x="555.3" y="454.7" width="8.64" height="2.97"/><rect class="cls-40" x="519.71" y="454.7" width="6.2" height="2.97"/><rect class="cls-40" x="501.31" y="454.7" width="6.2" height="2.97"/><rect class="cls-30" x="525.91" y="459.79" width="8.64" height="2.97"/><rect class="cls-30" x="555.3" y="459.79" width="8.64" height="2.97"/><rect class="cls-40" x="519.71" y="459.79" width="6.2" height="2.97"/><rect class="cls-40" x="501.31" y="459.79" width="6.2" height="2.97"/><rect class="cls-30" x="525.91" y="464.87" width="8.64" height="2.97"/><rect class="cls-30" x="555.3" y="464.87" width="8.64" height="2.97"/><rect class="cls-40" x="519.71" y="464.87" width="6.2" height="2.97"/><rect class="cls-40" x="501.31" y="464.87" width="6.2" height="2.97"/><rect class="cls-30" x="525.91" y="469.96" width="8.64" height="2.97"/><rect class="cls-30" x="555.3" y="469.96" width="8.64" height="2.97"/><rect class="cls-40" x="519.71" y="469.96" width="6.2" height="2.97"/><rect class="cls-40" x="501.31" y="469.96" width="6.2" height="2.97"/><rect class="cls-30" x="525.91" y="475.05" width="8.64" height="2.97"/><rect class="cls-30" x="555.3" y="475.05" width="8.64" height="2.97"/><rect class="cls-40" x="519.71" y="475.05" width="6.2" height="2.97"/><rect class="cls-40" x="501.31" y="475.05" width="6.2" height="2.97"/><rect class="cls-30" x="525.91" y="480.14" width="8.64" height="2.97"/><rect class="cls-30" x="555.3" y="480.14" width="8.64" height="2.97"/><rect class="cls-40" x="519.71" y="480.14" width="6.2" height="2.97"/><rect class="cls-40" x="501.31" y="480.14" width="6.2" height="2.97"/><rect class="cls-30" x="525.91" y="485.23" width="8.64" height="2.97"/><rect class="cls-30" x="555.3" y="485.23" width="8.64" height="2.97"/><rect class="cls-40" x="519.71" y="485.23" width="6.2" height="2.97"/><rect class="cls-40" x="501.31" y="485.23" width="6.2" height="2.97"/><rect class="cls-30" x="525.91" y="490.31" width="8.64" height="2.97"/><rect class="cls-30" x="555.3" y="490.31" width="8.64" height="2.97"/><rect class="cls-40" x="519.71" y="490.31" width="6.2" height="2.97"/><rect class="cls-40" x="501.31" y="490.31" width="6.2" height="2.97"/><rect class="cls-30" x="525.91" y="495.4" width="8.64" height="2.97"/><rect class="cls-30" x="555.3" y="495.4" width="8.64" height="2.97"/><rect class="cls-40" x="519.71" y="495.4" width="6.2" height="2.97"/><rect class="cls-40" x="501.31" y="495.4" width="6.2" height="2.97"/><rect class="cls-30" x="525.91" y="500.49" width="8.64" height="2.97"/><rect class="cls-30" x="555.3" y="500.49" width="8.64" height="2.97"/><rect class="cls-40" x="519.71" y="500.49" width="6.2" height="2.97"/><rect class="cls-40" x="501.31" y="500.49" width="6.2" height="2.97"/><rect class="cls-30" x="525.91" y="505.58" width="8.64" height="2.97"/><rect class="cls-30" x="555.3" y="505.58" width="8.64" height="2.97"/><rect class="cls-40" x="519.71" y="505.58" width="6.2" height="2.97"/><rect class="cls-40" x="501.31" y="505.58" width="6.2" height="2.97"/><rect class="cls-35" x="538.83" y="236.2" width="12.92" height="271.74"/><rect class="cls-39" x="509.7" y="235.85" width="8.08" height="272.7"/><rect class="cls-39" x="534.55" y="225.87" width="20.76" height="4.97"/><rect class="cls-10" x="507.51" y="225.87" width="12.2" height="4.95"/><rect class="cls-30" x="507" y="220.39" width="50.99" height="5.48"/><rect class="cls-41" x="507" y="220.39" width="16.66" height="5.48"/><rect class="cls-42" x="513.9" y="205.3" width="37.18" height="15.09"/><path class="cls-10" d="M483.65,468.09a42.59,42.59,0,0,0-42.6,42.43h85.2A42.6,42.6,0,0,0,483.65,468.09Z"/><path class="cls-42" d="M496,480.41a30.27,30.27,0,0,0-30.27,30.11h60.53A30.27,30.27,0,0,0,496,480.41Z"/><path class="cls-10" d="M430.41,484.42a26.28,26.28,0,0,0-26.26,26.1h52.52A26.27,26.27,0,0,0,430.41,484.42Z"/><polygon class="cls-43" points="368.84 291.21 368.84 261.24 309.74 261.24 309.74 510.52 397.52 510.52 397.52 313.82 368.84 291.21"/><polygon class="cls-44" points="339.27 291.21 339.27 261.24 280.17 261.24 280.17 510.52 367.95 510.52 367.95 313.82 339.27 291.21"/><polygon class="cls-45" points="360.59 291.22 360.59 261.24 353.63 261.24 353.63 291.22 382.31 313.82 382.31 510.52 389.27 510.52 389.27 313.82 360.59 291.22"/><rect class="cls-6" x="285.4" y="275.43" width="2.39" height="235.1"/><rect class="cls-6" x="290.32" y="275.43" width="2.39" height="235.1"/><rect class="cls-6" x="295.25" y="275.43" width="2.39" height="235.1"/><rect class="cls-6" x="300.17" y="275.43" width="2.39" height="235.1"/><rect class="cls-6" x="305.1" y="275.43" width="2.39" height="235.1"/><rect class="cls-6" x="310.02" y="275.43" width="2.39" height="235.1"/><rect class="cls-6" x="314.95" y="275.43" width="2.39" height="235.1"/><rect class="cls-6" x="319.87" y="275.43" width="2.39" height="235.1"/><rect class="cls-6" x="324.8" y="275.43" width="2.39" height="235.1"/><rect class="cls-6" x="329.72" y="275.43" width="2.39" height="235.1"/><rect class="cls-6" x="339.57" y="302.95" width="2.39" height="207.57"/><rect class="cls-6" x="344.5" y="309.86" width="2.39" height="200.67"/><rect class="cls-6" x="349.42" y="317.3" width="2.39" height="193.23"/><rect class="cls-6" x="354.35" y="324.42" width="2.39" height="186.1"/><rect class="cls-6" x="359.27" y="324.42" width="2.39" height="186.1"/><path class="cls-15" d="M413.37,497.54c0-2.93-2.06-5.32-4.61-5.32h-2.59c-2.56,0-4.64,2.4-4.64,5.36v4.18c0,3-2.08,5.36-4.65,5.36h-2.25c-2.56,0-4.64-2.4-4.64-5.36V483.68c0-3-2.08-5.37-4.65-5.37h-2.55c-2.57,0-4.65,2.4-4.65,5.37v10c0,3-2.08,5.36-4.64,5.36h-.88c-2.57,0-4.65-2.4-4.65-5.36V471.8c0-3-2.08-5.36-4.64-5.36h-2.55c-2.57,0-4.65,2.4-4.65,5.36v3.71c0,2.95-2.07,5.33-4.61,5.33h-2.63c-2.54,0-4.61,2.38-4.61,5.32v8.58c0,3-2.08,5.36-4.64,5.36h-2.11c-2.56,0-4.65,2.4-4.65,5.36v5.06h81.78a5.68,5.68,0,0,1-1.29-3.67Z"/><path class="cls-15" d="M428.53,498.37a5.51,5.51,0,0,0-4.2,2,7.41,7.41,0,0,0-1.74,4.84v2a5.08,5.08,0,0,1-1.13,3.28h13v-5.09C434.44,501.62,431.83,498.38,428.53,498.37Z"/><path class="cls-10" d="M246.23,505.51A43.14,43.14,0,0,0,241.91,494c-.28-.51-.57-1-.87-1.52a44.12,44.12,0,0,0-8.35-10.1c-.42-.39-.86-.76-1.3-1.13a44.05,44.05,0,0,0-11.74-7c-.53-.21-1.06-.41-1.59-.59a43.45,43.45,0,0,0-13.7-2.47h-1.68a43.45,43.45,0,0,0-13.7,2.47c-.54.18-1.06.38-1.59.59a44.05,44.05,0,0,0-11.74,7c-.44.37-.88.74-1.3,1.13a43.87,43.87,0,0,0-8.35,10.1c-.3.5-.59,1-.87,1.52a43.14,43.14,0,0,0-4.32,11.55c-.13.58-.25,1.17-.35,1.75-.19,1.07-.32,2.17-.43,3.26h87c-.11-1.09-.24-2.19-.43-3.26C246.48,506.68,246.36,506.09,246.23,505.51Z"/><path class="cls-39" d="M203.52,471.18h-.84v39.33h1.68V471.19Z"/><path class="cls-39" d="M187.39,474.25l9.72,36.27h1.75L189,473.66C188.44,473.84,187.92,474,187.39,474.25Z"/><path class="cls-39" d="M174.35,482.34l16.28,28.18h1.94l-16.92-29.31C175.21,481.58,174.77,482,174.35,482.34Z"/><path class="cls-39" d="M165.13,494l16.57,16.56h2.38L166,492.44C165.7,492.94,165.41,493.45,165.13,494Z"/><path class="cls-39" d="M160.46,507.26l5.65,3.26h3.38l-8.68-5C160.68,506.09,160.56,506.68,160.46,507.26Z"/><path class="cls-39" d="M218.06,473.66l-9.88,36.86h1.75l9.72-36.27C219.12,474,218.59,473.84,218.06,473.66Z"/><path class="cls-39" d="M231.39,481.21l-16.93,29.31h1.95l16.28-28.18C232.27,482,231.83,481.58,231.39,481.21Z"/><path class="cls-39" d="M241,492.44,223,510.52h2.38L241.91,494C241.63,493.45,241.34,492.94,241,492.44Z"/><path class="cls-39" d="M246.23,505.51l-8.68,5h3.37l5.66-3.26C246.48,506.68,246.36,506.09,246.23,505.51Z"/><path class="cls-46" d="M868.11,470.73l.48,2.15c.21-.05,21-4.81,21-21.55h-2.21C887.43,466.29,868.31,470.68,868.11,470.73Z"/><path class="cls-46" d="M853.21,475.78l.12,2.2c.27,0,26.6-1.74,26.6-26.65h-2.21C877.72,474.14,854.21,475.72,853.21,475.78Z"/><path class="cls-46" d="M853.08,467.94l.39,2.17c.17,0,17.3-3.24,17.3-19.82h-2.21C868.56,465,853.71,467.83,853.08,467.94Z"/><path class="cls-46" d="M831.17,445.61l-2.08-.73c-.17.5-4.16,12.2,4.18,17.73l1.22-1.83C827.58,456.19,831.14,445.71,831.17,445.61Z"/><path class="cls-46" d="M822.23,444.64V443.3H820v1.34a18.9,18.9,0,0,0,18.88,18.88h13.29v-2.21H838.9A16.68,16.68,0,0,1,822.23,444.64Z"/><path class="cls-46" d="M854.4,473.43V446.26H850v27.17c0,21.25-21.94,32.77-32.52,37.09h10.46C839.79,504.11,854.4,492.38,854.4,473.43Z"/><path class="cls-39" d="M840.53,402.21c-22,0-39.89,20.66-39.89,46.14h79.79C880.43,422.87,862.57,402.21,840.53,402.21Z"/><path class="cls-39" d="M885.07,425.85a27,27,0,0,0-27,27H912A27,27,0,0,0,885.07,425.85Z"/><path class="cls-47" d="M456.31,467.09l.41,1.87c.18,0,18.24-4.17,18.24-18.68h-1.91C473.05,463.25,456.47,467.05,456.31,467.09Z"/><path class="cls-47" d="M443.4,471.47l.1,1.9c.23,0,23-1.51,23-23.09h-1.91C464.63,470.05,444.26,471.42,443.4,471.47Z"/><path class="cls-47" d="M443.28,464.68l.33,1.88c.16,0,15-2.81,15-17.17H456.7C456.7,462.13,443.83,464.58,443.28,464.68Z"/><path class="cls-47" d="M424.3,445.33l-1.8-.63c-.15.42-3.61,10.56,3.62,15.36l1.06-1.59C421.19,454.5,424.27,445.42,424.3,445.33Z"/><path class="cls-47" d="M416.55,444.49v-1.16h-1.91v1.16A16.37,16.37,0,0,0,431,460.84h11.52v-1.9H431A14.47,14.47,0,0,1,416.55,444.49Z"/><path class="cls-47" d="M440.6,469.44c0,24.13-32.69,33.8-33,33.89l1.05,3.67c1.46-.41,35.79-10.54,35.79-37.56V445.89H440.6Z"/><path class="cls-48" d="M432.41,407.72c-19.09,0-34.57,17.9-34.57,40H467C467,425.62,451.5,407.72,432.41,407.72Z"/><path class="cls-48" d="M471,428.2a23.38,23.38,0,0,0-23.38,23.38h46.75A23.38,23.38,0,0,0,471,428.2Z"/><rect class="cls-3" x="495.49" y="462.61" width="38.86" height="47.91"/><rect class="cls-32" x="495.49" y="451.16" width="38.86" height="11.45"/><rect class="cls-49" x="531.79" y="451.16" width="1.33" height="11.45"/><rect class="cls-49" x="529.26" y="451.16" width="1.33" height="11.45"/><rect class="cls-49" x="526.73" y="451.16" width="1.33" height="11.45"/><rect class="cls-49" x="524.2" y="451.16" width="1.33" height="11.45"/><rect class="cls-49" x="521.68" y="451.16" width="1.33" height="11.45"/><rect class="cls-49" x="519.15" y="451.16" width="1.33" height="11.45"/><rect class="cls-49" x="516.62" y="451.16" width="1.33" height="11.45"/><rect class="cls-49" x="514.09" y="451.16" width="1.33" height="11.45"/><rect class="cls-49" x="511.57" y="451.16" width="1.33" height="11.45"/><rect class="cls-49" x="509.04" y="451.16" width="1.33" height="11.45"/><rect class="cls-49" x="506.51" y="451.16" width="1.33" height="11.45"/><rect class="cls-49" x="503.98" y="451.16" width="1.33" height="11.45"/><rect class="cls-49" x="501.46" y="451.16" width="1.33" height="11.45"/><rect class="cls-49" x="498.93" y="451.16" width="1.33" height="11.45"/><rect class="cls-49" x="496.4" y="451.16" width="1.33" height="11.45"/><path class="cls-46" d="M207,509.43a22.41,22.41,0,0,0-2.24-6c-.15-.27-.3-.53-.46-.79a22.18,22.18,0,0,0-4.34-5.25l-.67-.59a23,23,0,0,0-6.11-3.62l-.82-.31a23,23,0,0,0-7.12-1.28h-.88a23,23,0,0,0-7.12,1.28l-.82.31a23,23,0,0,0-6.1,3.62l-.68.59a22.67,22.67,0,0,0-4.34,5.25c-.16.26-.3.52-.45.79a22.43,22.43,0,0,0-2.25,6l-.18.91c0,.06,0,.12,0,.18h44.8a1.1,1.1,0,0,0,0-.18C207.13,510,207.07,509.73,207,509.43Z"/><path class="cls-50" d="M184.8,491.59h-.44v18.93h.88V491.59Z"/><path class="cls-50" d="M176.42,493.18l4.65,17.34h.9l-4.73-17.65Z"/><path class="cls-50" d="M169.64,497.39l7.59,13.13h1l-7.92-13.72Z"/><path class="cls-50" d="M164.85,503.43l7.1,7.09h1.24l-7.89-7.88C165.14,502.9,165,503.16,164.85,503.43Z"/><path class="cls-50" d="M162.42,510.34l.32.18h1.76l-1.9-1.09Z"/><path class="cls-50" d="M192.36,492.87l-4.73,17.65h.91l4.64-17.34Z"/><path class="cls-50" d="M199.29,496.8l-7.93,13.72h1L200,497.39Z"/><path class="cls-50" d="M204.3,502.64l-7.88,7.88h1.24l7.1-7.09C204.61,503.16,204.46,502.9,204.3,502.64Z"/><path class="cls-50" d="M207,509.43l-1.89,1.09h1.75l.32-.18C207.13,510,207.07,509.73,207,509.43Z"/><path class="cls-46" d="M224.84,508.42a12.23,12.23,0,0,0-1.22-3.25c-.07-.14-.16-.28-.24-.42a12.35,12.35,0,0,0-2.35-2.84c-.11-.11-.24-.21-.36-.31a12.06,12.06,0,0,0-3.3-2l-.44-.17a12.56,12.56,0,0,0-3.85-.69h-.47a12.44,12.44,0,0,0-3.84.69l-.45.17a12.36,12.36,0,0,0-3.3,2l-.36.31a12.35,12.35,0,0,0-2.35,2.84l-.24.42a12.21,12.21,0,0,0-1.21,3.25c0,.16-.07.32-.1.49a12.19,12.19,0,0,0-.15,1.61h24.47a10.71,10.71,0,0,0-.15-1.61C224.91,508.74,224.87,508.58,224.84,508.42Z"/><path class="cls-50" d="M212.85,498.78h-.24v11.74h.47V498.78Z"/><path class="cls-50" d="M208.32,499.64l2.91,10.88h.5l-3-11Z"/><path class="cls-50" d="M204.66,501.91l5,8.61h.55L205,501.6Z"/><path class="cls-50" d="M202.07,505.17l5.35,5.35h.67l-5.78-5.77Z"/><path class="cls-50" d="M200.76,508.91l2.8,1.61h.95l-3.65-2.1C200.82,508.58,200.79,508.74,200.76,508.91Z"/><path class="cls-50" d="M216.93,499.47l-3,11h.49l2.91-10.88Z"/><path class="cls-50" d="M220.67,501.6l-5.15,8.92h.54l5-8.61C220.92,501.8,220.79,501.7,220.67,501.6Z"/><path class="cls-50" d="M223.38,504.75l-5.78,5.77h.67l5.35-5.35C223.55,505,223.46,504.89,223.38,504.75Z"/><path class="cls-50" d="M224.84,508.42l-3.65,2.1h.94l2.8-1.61C224.91,508.74,224.87,508.58,224.84,508.42Z"/><path class="cls-14" d="M407.57,459.76c.26-5.75-7.52-7.24-7.89.1-.72,14.49.37,19.39-4.94,23.23-2,1.45-1.84,4.74-2.05,10.75l.07,16.68h20.65v-42C413.41,464,407.31,465.51,407.57,459.76Z"/><rect class="cls-50" x="403.72" y="462.64" width="0.64" height="47.89"/><rect class="cls-50" x="403.32" y="468.55" width="7.15" height="0.64" transform="translate(-200.49 340.49) rotate(-37.11)"/><rect class="cls-50" x="402.31" y="472.98" width="0.64" height="3.92" transform="translate(-218.82 436.46) rotate(-46.17)"/><rect class="cls-50" x="403.63" y="482.68" width="7.89" height="0.64" transform="translate(-172.57 232.33) rotate(-26.47)"/><rect class="cls-50" x="400.06" y="485.14" width="0.64" height="8.66" transform="translate(-227.35 565.91) rotate(-57.66)"/><rect class="cls-50" x="403.89" y="495.15" width="7.36" height="0.64" transform="translate(-123.14 134.98) rotate(-16.37)"/><rect class="cls-50" x="400.06" y="499.06" width="0.64" height="8.22" transform="translate(-230.08 629.71) rotate(-62.84)"/><path class="cls-14" d="M887.22,449c.29-6.45-8.43-8.13-8.85.12-.81,16.25.42,21.76-5.55,26.07-2.24,1.62-2.06,5.31-2.3,12.06l.1,23.28h23.15V458.79C893.77,453.77,886.94,455.45,887.22,449Z"/><rect class="cls-50" x="882.9" y="452.22" width="0.72" height="58.31"/><rect class="cls-50" x="882.45" y="458.85" width="8.03" height="0.72" transform="translate(-97.56 627.73) rotate(-37.1)"/><rect class="cls-50" x="881.32" y="463.82" width="0.72" height="4.4" transform="translate(-65.11 779.27) rotate(-46.17)"/><rect class="cls-50" x="882.8" y="474.72" width="8.85" height="0.72" transform="translate(-118.75 445.4) rotate(-26.48)"/><rect class="cls-50" x="878.8" y="477.48" width="0.72" height="9.72" transform="translate(1.33 967.1) rotate(-57.66)"/><rect class="cls-50" x="883.1" y="488.71" width="8.26" height="0.72" transform="translate(-101.94 270.19) rotate(-16.39)"/><rect class="cls-50" x="878.8" y="493.1" width="0.72" height="9.23" transform="translate(34.99 1052.71) rotate(-62.84)"/><path class="cls-7" d="M392.74,480.64c-.42-2.44-.94-4.26-1.59-5-3.59-4.31-3.86-.24-3.86,3.66v31.26h7.06c0-7.51-.27-22-1.61-29.87Z"/><path class="cls-26" d="M394.34,508.44c0-1.53,0-3.26-.08-5.09,0-.26,0-.53,0-.8,0-1.95-.1-4-.18-6.07,0-.28,0-.54,0-.81a131,131,0,0,0-1.29-15c0,.35-.22,7.5-1.92,11.94a24.55,24.55,0,0,1-3.53,5.46c-3.07,3.91-7.26,7.16-7.78,10.81-.09.61-.12,1.15-.15,1.66h15c0-.42,0-.84,0-1.31Z"/><path class="cls-50" d="M390.2,499.78l-.37.54,4.43,3c0-.26,0-.53,0-.8Z"/><path class="cls-50" d="M388.27,504.6l-.35.55,6.42,4.06v-.77Z"/><path class="cls-50" d="M392.09,494.31l-.37.54,2.34,1.63c0-.28,0-.54,0-.81Z"/><path class="cls-11" d="M860.78,505.88a31.67,31.67,0,0,0-3.14-8.4c-.21-.37-.42-.74-.64-1.1a31.6,31.6,0,0,0-6.07-7.35l-.94-.82a32,32,0,0,0-8.54-5.06c-.38-.16-.77-.3-1.16-.43a31.55,31.55,0,0,0-10-1.8H829.1a31.65,31.65,0,0,0-10,1.8c-.39.13-.77.27-1.15.43a31.65,31.65,0,0,0-8.54,5.06c-.32.27-.64.54-.94.82a31.64,31.64,0,0,0-6.08,7.35c-.22.36-.43.73-.63,1.1a31.69,31.69,0,0,0-3.15,8.4c-.09.42-.17.85-.24,1.27a31.3,31.3,0,0,0-.39,3.37h63.39a31.29,31.29,0,0,0-.38-3.37C861,506.73,860.87,506.3,860.78,505.88Z"/><path class="cls-46" d="M829.72,480.91h-.62v29.6h1.23v-29.6Z"/><path class="cls-46" d="M818,483.15l7.33,27.37h1.27l-7.45-27.8C818.75,482.85,818.37,483,818,483.15Z"/><path class="cls-46" d="M808.51,489l12.41,21.49h1.41l-12.88-22.31C809.13,488.48,808.81,488.75,808.51,489Z"/><path class="cls-46" d="M801.8,497.48l13,13h1.74l-14.15-14.14C802.21,496.74,802,497.11,801.8,497.48Z"/><path class="cls-46" d="M798.41,507.15l5.83,3.37h2.46l-8.05-4.64C798.56,506.3,798.48,506.73,798.41,507.15Z"/><path class="cls-46" d="M840.29,482.72l-7.45,27.8h1.27l7.34-27.37C841.07,483,840.68,482.85,840.29,482.72Z"/><path class="cls-46" d="M850,488.21,837.1,510.52h1.42L850.93,489Z"/><path class="cls-46" d="M857,496.38l-14.14,14.14h1.73l13-13C857.43,497.11,857.22,496.74,857,496.38Z"/><path class="cls-46" d="M860.78,505.88l-8,4.64h2.45l5.84-3.37C861,506.73,860.87,506.3,860.78,505.88Z"/><path class="cls-46" d="M876.46,509.3a15.6,15.6,0,0,0-1.57-4.2c-.1-.18-.2-.37-.31-.55a16,16,0,0,0-3-3.67l-.47-.41a15.76,15.76,0,0,0-4.26-2.52l-.58-.22a16,16,0,0,0-5-.9h-.62a16,16,0,0,0-5,.9l-.58.22a15.61,15.61,0,0,0-4.26,2.52l-.48.41a16,16,0,0,0-3,3.67l-.32.55a15.94,15.94,0,0,0-1.57,4.2l-.12.64a5.77,5.77,0,0,0-.08.58h31.44c0-.19,0-.39-.08-.58S876.51,509.51,876.46,509.3Z"/><path class="cls-50" d="M861,496.83h-.31v13.69h.62V496.83Z"/><path class="cls-50" d="M855.09,498l3.37,12.57h.64l-3.43-12.79Z"/><path class="cls-50" d="M850.35,500.88l5.57,9.64h.71l-5.8-10Z"/><path class="cls-50" d="M847,505.1l5.42,5.42h.87l-6-6Z"/><path class="cls-50" d="M845.31,509.94l1,.58h1.22l-2.12-1.22Z"/><path class="cls-50" d="M866.23,497.73l-3.43,12.79h.64L866.81,498Z"/><path class="cls-50" d="M871.07,500.47l-5.8,10H866l5.56-9.64Z"/><path class="cls-50" d="M874.58,504.55l-6,6h.86l5.42-5.42C874.79,504.92,874.69,504.73,874.58,504.55Z"/><path class="cls-50" d="M876.46,509.3l-2.12,1.22h1.23l1-.58C876.55,509.72,876.51,509.51,876.46,509.3Z"/><path class="cls-51" d="M484.8,487.93c-2.44,0-4.42,7.46-4.42,16.65h8.84C489.22,495.39,487.24,487.93,484.8,487.93Z"/><path class="cls-51" d="M475.9,476.39c-4.06,0-7.35,12.62-7.35,28.19h14.7C483.25,489,480,476.39,475.9,476.39Z"/><rect class="cls-46" x="478.37" y="504.58" width="1.13" height="5.95"/><rect class="cls-46" x="457.72" y="505.76" width="1.13" height="4.76"/><path class="cls-39" d="M456.14,488.43a5,5,0,0,0-5,5v12.33h10V493.43A5,5,0,0,0,456.14,488.43Z"/><path class="cls-39" d="M462.55,494.9a3.13,3.13,0,0,0-3.13,3.13v7.73h6.27V498A3.14,3.14,0,0,0,462.55,494.9Z"/><path class="cls-52" d="M949.64,498.75c-4.61-11.5,9.12-17.26,5.16-30.71s-22.2-12.38-23.52-22.65-1.32-17.61-11-20.05c-8.56-2.17-12.51,2.69-13.61,10-.77,5.11,2.2,12-4.61,14.43s-22,5.13-18,15.65,6.81,15.16.88,19.56c-5.52,4.1-10.38,14.79-3.21,25.52H950A16.52,16.52,0,0,0,949.64,498.75Z"/><rect class="cls-50" x="915.41" y="472.03" width="2.79" height="38.5"/><rect class="cls-50" x="909.84" y="471.66" width="2.79" height="16.21" transform="matrix(0.73, -0.69, 0.69, 0.73, -80.23, 758.2)"/><rect class="cls-50" x="915.06" y="498.81" width="18.05" height="2.79" transform="matrix(0.81, -0.59, 0.59, 0.81, -116.85, 643.69)"/><path class="cls-53" d="M662.59,107.82a5.76,5.76,0,0,0-2.77.71,4.08,4.08,0,0,0-4.08-4,4,4,0,0,0-2.09.59,3.27,3.27,0,0,0-6.27,1.31,2.92,2.92,0,0,0,0,.51,10.56,10.56,0,0,0-5.82,4.65,6,6,0,0,0-5.19-3,5.83,5.83,0,0,0-2.4.51c0-.17,0-.34,0-.51a13.22,13.22,0,0,0-23.09-8.8,4.37,4.37,0,0,0-2.61-.86,4.46,4.46,0,0,0-4.07,2.64A13.09,13.09,0,0,0,593.71,109a7.94,7.94,0,0,0-4.2-1.22,7.85,7.85,0,0,0-6.39,3.3,5.9,5.9,0,0,0-1.46-.19,6,6,0,0,0-4.6,2.14h91.25A5.74,5.74,0,0,0,662.59,107.82Z"/><path class="cls-53" d="M319.29,105.46a9,9,0,0,0-2.66.4A11.53,11.53,0,0,0,303.07,98a13.65,13.65,0,0,0-23,5.63,7.76,7.76,0,0,0-1.75-.19,7.94,7.94,0,0,0-7.5,5.34,5.57,5.57,0,0,0-4,.67,7.35,7.35,0,0,0-13.3,2.15,5.32,5.32,0,0,0-6,3.07h80.8v-.17A9,9,0,0,0,319.29,105.46Z"/><path class="cls-53" d="M943.85,200.54a11.7,11.7,0,0,0-10.37,6.29A7.74,7.74,0,0,0,930,206l-.52,0a17.37,17.37,0,0,0,.11-1.92,16.77,16.77,0,0,0-33.33-2.68h-.4a8.8,8.8,0,0,0-8.32,5.92,6,6,0,0,0-4.44.75,8.16,8.16,0,0,0-14.76,2.38,6.28,6.28,0,0,0-1.32-.15,5.83,5.83,0,0,0-4.66,2.31h93.14c0-.14,0-.28,0-.41A11.7,11.7,0,0,0,943.85,200.54Z"/><path class="cls-53" d="M1049.35,125.92a20.77,20.77,0,0,0-7.9,1.57,10.8,10.8,0,0,0,.53-3.33,10.92,10.92,0,0,0-10.92-10.91,11.48,11.48,0,0,0-2.7.35,15.61,15.61,0,0,0-31,1.58,31.3,31.3,0,0,0-13.51,14.74A19.42,19.42,0,0,0,973.65,127a19.65,19.65,0,0,0-18.43,12.85,15.59,15.59,0,0,0-6.38-1.36,15.78,15.78,0,0,0-4.2.59A19.64,19.64,0,0,0,909,143.65h160.91A20.78,20.78,0,0,0,1049.35,125.92Z"/><path class="cls-53" d="M274.07,178.22A28,28,0,0,0,250,192a16,16,0,0,0-20.74-6.32,27.71,27.71,0,0,0-35-21.1,34.91,34.91,0,0,0-67.62,12.18,35.3,35.3,0,0,0,.51,5.95,20.71,20.71,0,0,0-22.31,8.08,16.15,16.15,0,0,0-3.9-.5,15.31,15.31,0,0,0-3.13.32,16,16,0,0,0-28.36,5.36H300.15A28,28,0,0,0,274.07,178.22Z"/></g><g id="Layer_4" data-name="Layer 4"><path class="cls-54" d="M197.1,554H337.75a5.57,5.57,0,0,1,5.57,5.57h0a5.57,5.57,0,0,1-5.57,5.57H197.1a5.57,5.57,0,0,1-5.57-5.57h0A5.58,5.58,0,0,1,197.1,554Z"/><path class="cls-55" d="M265.55,289h7.91a0,0,0,0,1,0,0v47.29a0,0,0,0,1,0,0h-1.93a17.23,17.23,0,0,1-17.23-17.23V300.24A11.24,11.24,0,0,1,265.55,289Z" transform="matrix(0.98, 0.18, -0.18, 0.98, 61.82, -43.1)"/><path class="cls-56" d="M327.23,552.12l-10-9.84-4.84-54.19s-6.82-6.69-15.24-16.36h0c-11.8-13.53-26.71-32.86-30.44-47.78l35-1.1,18.69,34.77,10.73,20a22.21,22.21,0,0,1,2.31,13.15Z"/><path class="cls-55" d="M320.4,457.61l-23.21,14.12h0c-11.8-13.53-26.71-32.86-30.44-47.78l35-1.1Z"/><path class="cls-53" d="M333.08,545.07l-15.84-2.8-1.36,12,27.46,5.12A12.6,12.6,0,0,0,333.08,545.07Z"/><path class="cls-57" d="M301.71,422.84,281,470.4l-7.79,17.87a18,18,0,0,1-18.85,9.15l-58.8-13.08.36-13.8,54.2,4s1.23-5.16,3.11-12.87c3-12.23,7.66-30.88,11.84-45.64Z"/><path class="cls-58" d="M301.71,422.84,281,470.4l-27.77-8.76c3-12.23,7.66-30.88,11.84-45.64Z"/><path class="cls-53" d="M195.48,486.62l.42-16.07-12.26.44-1.09,27.91A12.61,12.61,0,0,0,195.48,486.62Z"/><path class="cls-57" d="M244.33,403.66h12.06a0,0,0,0,1,0,0v8.57a4.51,4.51,0,0,1-4.51,4.51h-7.55a0,0,0,0,1,0,0V403.66A0,0,0,0,1,244.33,403.66Z" transform="translate(48.27 -25.81) rotate(6.53)"/><path class="cls-59" d="M257.1,404.39l6.21-31.5,17.39-10s17.61-23.74-9.34-11c-16.86,8-20.59,13.32-20.59,13.32L245.11,403Z"/><path class="cls-60" d="M288,298.12A8.86,8.86,0,1,1,281,287.79,8.86,8.86,0,0,1,288,298.12Z"/><ellipse class="cls-55" cx="296.8" cy="302.07" rx="22.14" ry="20.84" transform="translate(-54.59 538.42) rotate(-79.43)"/><path class="cls-57" d="M283.68,305.4l-.48-.09a2.37,2.37,0,0,0-2.76,1.89l-1,5.3a3,3,0,0,0,2.4,3.5l2.18.41,1.54-8.26A2.36,2.36,0,0,0,283.68,305.4Z"/><path class="cls-57" d="M305.18,311.73l-20.45-3.82-4.64,24.83s5,6.51,12.52,7.92,6.76,2,6.76,2Z"/><path class="cls-61" d="M300.29,338l3-16.38-18.52-3.45S285.34,333.46,300.29,338Z"/><path class="cls-57" d="M303.82,291.36h0a14.85,14.85,0,0,0-17.33,11.88L284,316.37a14.86,14.86,0,0,0,11.88,17.33h0a14.87,14.87,0,0,0,17.33-11.88l2.45-13.13A14.85,14.85,0,0,0,303.82,291.36Z"/><path class="cls-61" d="M310.55,316.64l-1.58,0-.07,1.19a2,2,0,0,1-.64,1.39,1.29,1.29,0,0,1-1.07.33l-.32,1.7a2.78,2.78,0,0,0,2.35-.7,3.77,3.77,0,0,0,1.26-2.68Z"/><path class="cls-53" d="M302.31,329c5.7,1.06,8.17-5.22,8.17-5.22l-13.9-2.6S296.62,327.93,302.31,329Z"/><rect class="cls-55" x="278.62" y="301.44" width="18.05" height="1.97" transform="translate(-62.43 529.7) rotate(-79.43)"/><path class="cls-55" d="M288.28,300.79l2.49.47a3,3,0,0,0,3.49-2.39l2.13-11.41-5.43-1Z"/><path class="cls-53" d="M283.93,331.83l-6.9.69s-7.36,25.84-2.93,41.32c3.95,13.79-9.05,42.16-9.05,42.16l36.66,6.84,6.48-51.2C310.63,356.17,299.07,335,283.93,331.83Z"/><polygon class="cls-59" points="282.25 373.48 281.88 387.01 305.39 403.13 282.25 373.48"/><polygon class="cls-59" points="302.88 416.58 269.68 404.26 271.72 397.91 302.88 416.58"/><path class="cls-57" d="M312.6,413h12.06a0,0,0,0,1,0,0v8.05a4.48,4.48,0,0,1-4.48,4.48H312.6a0,0,0,0,1,0,0V413A0,0,0,0,1,312.6,413Z" transform="translate(-206.59 457.65) rotate(-56.95)"/><path class="cls-53" d="M316.77,410.94,281.88,387l3.83-54.67s-16.36-4.56-17.41,12.56c-1.81,29.75-2.73,53-2.73,53l44.52,23Z"/><path class="cls-53" d="M315.53,371.07c0,6.41-3.93,11.61-8.79,11.61s-8.78-5.2-8.78-11.61-3.74-20.63,1.12-20.63S315.53,364.66,315.53,371.07Z"/><polygon class="cls-59" points="284.09 355.48 289.87 356.23 282.98 372.67 284.09 355.48"/><path class="cls-54" d="M390.1,529.08H530.75a5.57,5.57,0,0,1,5.57,5.57h0a5.57,5.57,0,0,1-5.57,5.57H390.1a5.58,5.58,0,0,1-5.57-5.57h0A5.57,5.57,0,0,1,390.1,529.08Z"/><path class="cls-56" d="M518.56,526.23l-11-10.85-5.33-59.76s-7.52-7.38-16.8-18v0c-13-14.92-29.46-36.24-33.57-52.69l38.56-1.2L511,422l11.84,22.05a24.43,24.43,0,0,1,2.54,14.49Z"/><path class="cls-55" d="M511,422l-25.58,15.58v0c-13-14.92-29.46-36.24-33.57-52.69l38.56-1.2Z"/><path class="cls-53" d="M525,518.45l-17.46-3.08-1.5,13.26,30.27,5.65A13.9,13.9,0,0,0,525,518.45Z"/><path class="cls-57" d="M490.42,383.68l-22.85,52.44L459,455.83a19.83,19.83,0,0,1-20.79,10.09l-64.84-14.43.4-15.21,59.77,4.37s1.35-5.69,3.43-14.19c3.29-13.49,8.44-34,13.05-50.32Z"/><path class="cls-58" d="M490.42,383.68l-22.85,52.44L437,426.46c3.29-13.49,8.44-34,13.05-50.32Z"/><path class="cls-53" d="M373.28,454l.46-17.73-13.52.48L359,467.54A13.9,13.9,0,0,0,373.28,454Z"/><path class="cls-57" d="M427.22,368.92h13.3a0,0,0,0,1,0,0v9.45a5,5,0,0,1-5,5h-8.32a0,0,0,0,1,0,0V368.92A0,0,0,0,1,427.22,368.92Z" transform="matrix(0.99, 0.11, -0.11, 0.99, 45.59, -46.9)"/><path class="cls-59" d="M441.3,369.73,448.14,335l19.19-11.06S486.74,297.75,457,311.8c-18.59,8.8-22.7,14.69-22.7,14.69l-6.24,41.72Z"/><path class="cls-57" d="M494.24,261.15l-22.55-4.21-5.11,27.38s5.49,7.19,13.81,8.74,7.45,2.24,7.45,2.24Z"/><path class="cls-61" d="M488.85,290.06,492.22,272l-20.43-3.81S472.37,285.12,488.85,290.06Z"/><path class="cls-53" d="M470.81,283.32l-7.61.76s-8.11,28.49-3.23,45.56c4.36,15.21-10,46.49-10,46.49l40.42,7.54,7.14-56.45C500.26,310.16,487.51,286.81,470.81,283.32Z"/><polygon class="cls-59" points="468.96 329.24 468.56 344.17 494.47 361.94 468.96 329.24"/><polygon class="cls-59" points="491.71 376.78 455.1 363.19 457.34 356.19 491.71 376.78"/><path class="cls-57" d="M502.42,372.85h13.3a0,0,0,0,1,0,0v8.88a4.94,4.94,0,0,1-4.94,4.94h-8.36a0,0,0,0,1,0,0V372.85A0,0,0,0,1,502.42,372.85Z" transform="translate(-86.89 599.32) rotate(-56.95)"/><path class="cls-53" d="M507,370.55l-38.47-26.38,4.22-60.29s-18-5-19.2,13.85c-2,32.81-3,58.45-3,58.45l49.09,25.39Z"/><polygon class="cls-59" points="470.99 309.4 477.37 310.22 469.76 328.36 470.99 309.4"/><path class="cls-61" d="M502.05,255.31h0V270.5h0a3.74,3.74,0,0,0,3.74-3.74v-7.71A3.74,3.74,0,0,0,502.05,255.31Z"/><path class="cls-57" d="M468.66,249.63V257h.79v19.7a32.42,32.42,0,0,0,22.47,6.44,13,13,0,0,0,11.62-12.9V249.63a17,17,0,0,0-17-17.06h-.78A17.06,17.06,0,0,0,468.66,249.63Z"/><path class="cls-55" d="M502.05,242.64a17,17,0,0,0-15.55-10.07h-.78a17.06,17.06,0,0,0-17.06,17.06V257h.79v3.81h5.72v-8.64h2a4.64,4.64,0,0,0,4.64-4.64v0a4.81,4.81,0,0,1,4.81-4.81Z"/><path class="cls-57" d="M468.19,255.31h0a3.73,3.73,0,0,0-3.73,3.74v7.71a3.73,3.73,0,0,0,3.73,3.74H472V259.09A3.78,3.78,0,0,0,468.19,255.31Z"/><path class="cls-61" d="M494.07,266.73v-1.58a1.8,1.8,0,0,0,1.28-.54,1.75,1.75,0,0,0,.5-1.3l-.08-2.72,1.59,0,.08,2.72a3.36,3.36,0,0,1-3.37,3.47Z"/><path class="cls-53" d="M499.39,271.61H486.1s2.4,5,7,5S499.39,271.61,499.39,271.61Z"/><path class="cls-55" d="M479.36,228.35h16.12a0,0,0,0,1,0,0v2.35a10.21,10.21,0,0,1-10.21,10.21H469.15a0,0,0,0,1,0,0v-2.35A10.21,10.21,0,0,1,479.36,228.35Z" transform="translate(-44.81 333.73) rotate(-36.59)"/><path class="cls-55" d="M483.33,229.51h20.6a0,0,0,0,1,0,0v.56A9.93,9.93,0,0,1,494,240H473.4a0,0,0,0,1,0,0v-.56A9.93,9.93,0,0,1,483.33,229.51Z" transform="translate(-47.78 156.43) rotate(-17.35)"/><path class="cls-55" d="M485.44,234.19H508.5a0,0,0,0,1,0,0v2.88a5.58,5.58,0,0,1-5.58,5.58H485.44a0,0,0,0,1,0,0v-8.46A0,0,0,0,1,485.44,234.19Z"/><path class="cls-55" d="M467.83,243.88h8.83a0,0,0,0,1,0,0v6.3a0,0,0,0,1,0,0h-3.11a5.73,5.73,0,0,1-5.73-5.73v-.58A0,0,0,0,1,467.83,243.88Z"/><path class="cls-55" d="M467,239.16h8.83a0,0,0,0,1,0,0v6.3a0,0,0,0,1,0,0h-3.11a5.73,5.73,0,0,1-5.73-5.73v-.58A0,0,0,0,1,467,239.16Z" transform="translate(126.85 -160.44) rotate(22.25)"/><rect class="cls-60" x="466.61" y="242.32" width="38.98" height="6.3" rx="2.45"/></g><g id="Layer_5" data-name="Layer 5"><path class="cls-53" d="M1205,174l2.71,13.62,3.32-13,19-64.67h6.69l18.81,64.67,3.25,13.14,2.9-13.74,15.85-64.07h7.59l-22.48,87.76h-7.11L1235.7,129l-2.23-8.68L1231.3,129l-20.37,68.66h-7.12l-22.42-87.76h7.6Z"/><path class="cls-53" d="M1364.33,158.57a53.78,53.78,0,0,1-2.42,16.66,36.79,36.79,0,0,1-6.84,12.69,30.13,30.13,0,0,1-10.76,8.11,33.81,33.81,0,0,1-14.1,2.86,33.42,33.42,0,0,1-14-2.86,31.06,31.06,0,0,1-10.82-8.11,36.89,36.89,0,0,1-7-12.69,52.87,52.87,0,0,1-2.47-16.66v-9.41a53.2,53.2,0,0,1,2.47-16.69,38,38,0,0,1,6.94-12.75,30.33,30.33,0,0,1,10.76-8.14,33.42,33.42,0,0,1,14-2.86,33.81,33.81,0,0,1,14.1,2.86,30.54,30.54,0,0,1,10.82,8.14,36.7,36.7,0,0,1,6.9,12.75,54.11,54.11,0,0,1,2.42,16.69Zm-7.42-9.53a50.45,50.45,0,0,0-1.81-14,30.71,30.71,0,0,0-5.24-10.64,23.4,23.4,0,0,0-8.44-6.75,26,26,0,0,0-11.33-2.38,25.5,25.5,0,0,0-11.18,2.38,23.74,23.74,0,0,0-8.44,6.75,30.79,30.79,0,0,0-5.3,10.64,49.68,49.68,0,0,0-1.84,14v9.53a49.17,49.17,0,0,0,1.87,14.1,31.2,31.2,0,0,0,5.36,10.67,23.58,23.58,0,0,0,8.47,6.75,25.78,25.78,0,0,0,11.18,2.35,26.22,26.22,0,0,0,11.36-2.35,22.79,22.79,0,0,0,8.38-6.75,31,31,0,0,0,5.18-10.67,51.49,51.49,0,0,0,1.78-14.1Z"/><path class="cls-53" d="M1415.8,161.16h-25.5v36.53h-7.47V109.93h28.51a42.49,42.49,0,0,1,12.39,1.68,26.4,26.4,0,0,1,9.4,5,21.77,21.77,0,0,1,6,8.1,27.91,27.91,0,0,1,2.08,11.09,24.86,24.86,0,0,1-1.33,8.17,23.49,23.49,0,0,1-3.74,6.9,24.7,24.7,0,0,1-5.75,5.31,27.45,27.45,0,0,1-7.39,3.43l21.94,37.31v.79H1437Zm-25.5-6.33H1413a23.88,23.88,0,0,0,9-1.57,18.85,18.85,0,0,0,6.48-4.19,17,17,0,0,0,3.89-6.08,20.53,20.53,0,0,0,1.29-7.21,21.61,21.61,0,0,0-1.45-8.13,16,16,0,0,0-4.31-6.15,19.4,19.4,0,0,0-7-3.89,31,31,0,0,0-9.58-1.36h-21Z"/><path class="cls-53" d="M1468.84,191.42h43.34v6.27h-50.81V109.93h7.47Z"/><path class="cls-53" d="M1526.4,197.69V109.93h24.54a39.33,39.33,0,0,1,15.09,2.83,33.84,33.84,0,0,1,11.88,8.08,36.93,36.93,0,0,1,7.74,12.59,46.18,46.18,0,0,1,2.78,16.4v8a46.14,46.14,0,0,1-2.78,16.4,36.5,36.5,0,0,1-7.77,12.57,34.26,34.26,0,0,1-12,8,40.68,40.68,0,0,1-15.43,2.84Zm7.42-81.44v75.17h16.63a32,32,0,0,0,12.72-2.44,27.34,27.34,0,0,0,9.65-6.88,30.53,30.53,0,0,0,6.11-10.6,41.42,41.42,0,0,0,2.14-13.66v-8.19a41.29,41.29,0,0,0-2.17-13.78,30.29,30.29,0,0,0-6.11-10.51,27,27,0,0,0-9.5-6.72,30.91,30.91,0,0,0-12.35-2.39Z"/><path class="cls-60" d="M1250.3,309.33h-14V273.46h-36.09v35.87h-14V228.61h14V262.2h36.09V228.61h14Z"/><path class="cls-60" d="M1314.06,273.29h-33.15v24.84h38.75v11.2h-52.78V228.61h52.39v11.31h-38.36V262.2h33.15Z"/><path class="cls-60" d="M1376.26,290.53H1345l-6.55,18.8h-14.58l30.5-80.72H1367l30.55,80.72h-14.64Zm-27.33-11.3h23.4l-11.7-33.49Z"/><path class="cls-60" d="M1420.67,298.13h36.65v11.2h-50.67V228.61h14Z"/><path class="cls-60" d="M1515,239.92h-25.17v69.41H1476V239.92h-25V228.61h64Z"/><path class="cls-60" d="M1589.71,309.33h-14V273.46h-36.09v35.87h-14V228.61h14V262.2h36.09V228.61h14Z"/><path class="cls-62" d="M1184.93,498V338.46h51.39a77.71,77.71,0,0,1,29.8,5.59,68.4,68.4,0,0,1,23.39,15.72A71.93,71.93,0,0,1,1304.8,384a84.67,84.67,0,0,1,5.47,30.95v6.68a84.58,84.58,0,0,1-5.47,31,71.44,71.44,0,0,1-15.29,24.11,68.85,68.85,0,0,1-23.28,15.66,76.1,76.1,0,0,1-29.47,5.59Zm38.46-129.83V468.41h13.37q16.54,0,25.42-11.78t8.87-35v-6.9q0-23.12-8.87-34.84t-25.86-11.72Z"/><path class="cls-62" d="M1418.31,468.19H1365.6l-9.2,29.8h-41.09l58.51-159.53H1410L1468.92,498h-41.3Zm-43.5-29.69h34.29l-17.2-55.33Z"/><path class="cls-62" d="M1522.5,407.71l29.37-69.25h41.52L1542,440.69V498h-39v-57.3l-51.28-102.23H1493Z"/></g></g></svg>